<svg width="85" height="29" viewBox="0 0 85 29" fill="none" xmlns="http://www.w3.org/2000/svg">
<path d="M82.7179 28.3065C82.98 28.3935 83.263 28.2516 83.35 27.9896L84.7685 23.7189C84.8555 23.4569 84.7136 23.1739 84.4515 23.0868C84.1895 22.9998 83.9065 23.1417 83.8194 23.4037L82.5586 27.1998L78.7625 25.939C78.5005 25.852 78.2174 25.9939 78.1304 26.2559C78.0434 26.518 78.1853 26.801 78.4473 26.888L82.7179 28.3065ZM1.74054 26.6395C9.16655 9.23097 25.0417 1.05802 41.2193 1.4952C57.4048 1.93259 73.8734 10.9917 82.4285 28.056L83.3225 27.6079C74.5929 10.1956 57.7794 0.942344 41.2463 0.495562C24.7054 0.0485665 8.42547 8.41962 0.820735 26.2472L1.74054 26.6395Z" fill="#B6B8BD"/>
</svg>
