<svg width="38" height="37" viewBox="0 0 38 37" fill="none" xmlns="http://www.w3.org/2000/svg">
<path d="M25.2274 0C25.3079 0 25.3884 0 25.4734 0C25.6709 2.74747 24.7398 4.80038 23.6083 6.28703C22.4981 7.76341 20.9778 9.19532 18.5188 8.97805C18.3548 6.26992 19.2873 4.36927 20.4173 2.88605C21.4653 1.50375 23.3866 0.273721 25.2274 0Z" fill="black"/>
<path d="M33.5 27.1863C33.5 27.2122 33.5 27.2349 33.5 27.2592C32.7648 29.4919 31.7161 31.4053 30.4363 33.1811C29.2681 34.7932 27.8364 36.9627 25.2801 36.9627C23.0713 36.9627 21.6041 35.5386 19.3402 35.4997C16.9455 35.4608 15.6286 36.6905 13.4391 37C13.1887 37 12.9382 37 12.6926 37C11.0848 36.7667 9.7873 35.4899 8.84202 34.3396C6.05467 30.9403 3.90073 26.5495 3.5 20.9306C3.5 20.3797 3.5 19.8304 3.5 19.2795C3.66966 15.2581 5.61839 11.9885 8.20861 10.4039C9.57562 9.56141 11.4549 8.84365 13.5474 9.16446C14.4442 9.3038 15.3604 9.61164 16.1635 9.91624C16.9245 10.2095 17.8763 10.7296 18.7779 10.7021C19.3887 10.6842 19.9963 10.365 20.6119 10.1398C22.4152 9.48688 24.183 8.73834 26.513 9.08993C29.3133 9.51443 31.3008 10.762 32.5289 12.6868C30.16 14.1985 28.2872 16.4766 28.6072 20.3667C28.8916 23.9004 30.9405 25.9679 33.5 27.1863Z" fill="black"/>
</svg>
