<svg width="17" height="16" viewBox="0 0 17 16" fill="none" xmlns="http://www.w3.org/2000/svg">
<path d="M2.29551 4.46973C2.18673 4.21591 1.89279 4.09834 1.63898 4.20711C1.38516 4.31589 1.26759 4.60983 1.37636 4.86365L2.29551 4.46973ZM10.8941 8.88582L10.7109 8.42056L10.8941 8.88582ZM6.53024 9.15851C6.68084 8.92706 6.6153 8.61733 6.38384 8.46673C6.15238 8.31612 5.84266 8.38167 5.69205 8.61313L6.53024 9.15851ZM4.75018 10.0607C4.59957 10.2921 4.66512 10.6018 4.89658 10.7524C5.12804 10.9031 5.43776 10.8375 5.58836 10.606L4.75018 10.0607ZM15.6288 4.86365C15.7376 4.60983 15.62 4.31589 15.3662 4.20711C15.1124 4.09834 14.8185 4.21591 14.7097 4.46973L15.6288 4.86365ZM13.1693 7.41925L12.8271 7.05468L13.1693 7.41925ZM13.8157 8.7728C14.011 8.96806 14.3276 8.96806 14.5228 8.7728C14.7181 8.57754 14.7181 8.26095 14.5228 8.06569L13.8157 8.7728ZM8.0026 11C8.0026 11.2762 8.22646 11.5 8.5026 11.5C8.77875 11.5 9.0026 11.2762 9.0026 11H8.0026ZM11.4168 10.606C11.5674 10.8375 11.8772 10.9031 12.1086 10.7524C12.3401 10.6018 12.4056 10.2921 12.255 10.0607L11.4168 10.606ZM4.18949 7.7728C4.38475 7.57754 4.38475 7.26095 4.18949 7.06569C3.99423 6.87043 3.67765 6.87043 3.48238 7.06569L4.18949 7.7728ZM2.48238 8.06569C2.28712 8.26095 2.28712 8.57754 2.48238 8.7728C2.67765 8.96806 2.99423 8.96806 3.18949 8.7728L2.48238 8.06569ZM8.5026 8.83335C6.35334 8.83335 4.81016 7.76309 3.78567 6.65979C3.27357 6.10831 2.8981 5.55525 2.651 5.14011C2.52773 4.93302 2.43718 4.76156 2.3782 4.6436C2.34873 4.58466 2.3272 4.53918 2.31345 4.50943C2.30658 4.49456 2.30167 4.48362 2.29868 4.47691C2.29719 4.47355 2.29618 4.47125 2.29565 4.47004C2.29539 4.46944 2.29524 4.46911 2.29522 4.46905C2.29521 4.46903 2.29523 4.46907 2.29527 4.46918C2.2953 4.46924 2.29536 4.46937 2.29537 4.4694C2.29544 4.46956 2.29551 4.46973 1.83594 4.66669C1.37636 4.86365 1.37645 4.86385 1.37655 4.86408C1.37659 4.86418 1.3767 4.86442 1.37678 4.86462C1.37695 4.86502 1.37716 4.86548 1.37739 4.86602C1.37785 4.8671 1.37844 4.86846 1.37916 4.8701C1.38059 4.87337 1.38252 4.87777 1.38495 4.88324C1.38982 4.89419 1.3967 4.90946 1.40562 4.92876C1.42345 4.96737 1.44945 5.02215 1.48378 5.09081C1.5524 5.22806 1.65456 5.42119 1.79171 5.6516C2.06544 6.11146 2.48164 6.72507 3.05287 7.34025C4.19505 8.57028 5.9852 9.83335 8.5026 9.83335V8.83335ZM10.7109 8.42056C10.064 8.6752 9.33041 8.83335 8.5026 8.83335V9.83335C9.46141 9.83335 10.319 9.64951 11.0772 9.35108L10.7109 8.42056ZM5.69205 8.61313L4.75018 10.0607L5.58836 10.606L6.53024 9.15851L5.69205 8.61313ZM15.1693 4.66669C14.7097 4.46973 14.7097 4.46963 14.7098 4.46953C14.7098 4.46951 14.7098 4.46942 14.7099 4.46937C14.7099 4.46927 14.7099 4.4692 14.7099 4.46914C14.71 4.46904 14.71 4.46902 14.71 4.46908C14.7099 4.46922 14.7097 4.4697 14.7093 4.47053C14.7086 4.47217 14.7073 4.47519 14.7054 4.47951C14.7015 4.48817 14.6952 4.50208 14.6865 4.52085C14.6689 4.5584 14.6416 4.61532 14.6043 4.68847C14.5297 4.83486 14.4153 5.04556 14.2596 5.29549C13.9472 5.79679 13.4734 6.448 12.8271 7.05468L13.5115 7.78381C14.2375 7.10234 14.7637 6.37727 15.1083 5.82433C15.281 5.54714 15.4093 5.31122 15.4952 5.14279C15.5382 5.05852 15.5706 4.99097 15.5928 4.9434C15.6039 4.91961 15.6124 4.9008 15.6184 4.88738C15.6214 4.88067 15.6238 4.8753 15.6255 4.87133C15.6264 4.86934 15.6271 4.86771 15.6276 4.86642C15.6279 4.86578 15.6282 4.86523 15.6284 4.86477C15.6285 4.86453 15.6286 4.86433 15.6286 4.86414C15.6287 4.86405 15.6287 4.86392 15.6287 4.86388C15.6288 4.86376 15.6288 4.86365 15.1693 4.66669ZM12.8271 7.05468C12.2544 7.59219 11.5519 8.08957 10.7109 8.42056L11.0772 9.35108C12.0596 8.96439 12.867 8.3887 13.5115 7.78381L12.8271 7.05468ZM12.8157 7.7728L13.8157 8.7728L14.5228 8.06569L13.5228 7.06569L12.8157 7.7728ZM8.0026 9.33335V11H9.0026V9.33335H8.0026ZM10.475 9.15851L11.4168 10.606L12.255 10.0607L11.3132 8.61313L10.475 9.15851ZM3.48238 7.06569L2.48238 8.06569L3.18949 8.7728L4.18949 7.7728L3.48238 7.06569Z" fill="#424242"/>
</svg>
