<svg width="31" height="31" viewBox="0 0 31 31" fill="none" xmlns="http://www.w3.org/2000/svg">
<path d="M2.83594 15.4993C2.83594 9.60671 2.83594 6.66043 4.66652 4.82985C6.4971 2.99927 9.44338 2.99927 15.3359 2.99927C21.2285 2.99927 24.1748 2.99927 26.0054 4.82985C27.8359 6.66043 27.8359 9.60671 27.8359 15.4993C27.8359 21.3918 27.8359 24.3381 26.0054 26.1687C24.1748 27.9993 21.2285 27.9993 15.3359 27.9993C9.44338 27.9993 6.4971 27.9993 4.66652 26.1687C2.83594 24.3381 2.83594 21.3918 2.83594 15.4993Z" stroke="#009CFF" stroke-width="2.5"/>
<path d="M18.4609 12.374L12.2109 18.624M12.2109 12.374L18.4609 18.624" stroke="#009CFF" stroke-width="2.5" stroke-linecap="round"/>
</svg>
