<svg width="19" height="17" viewBox="0 0 19 17" fill="none" xmlns="http://www.w3.org/2000/svg">
<path d="M2.93777 10.9744V13.7499C2.93777 14.5622 3.26042 15.3411 3.83475 15.9154C4.40908 16.4898 5.18804 16.8124 6.00027 16.8124H13.0003C13.7869 16.8137 14.5435 16.5112 15.1125 15.9681L2.93777 10.9744ZM2.93777 10.9744C2.93774 10.8586 2.8918 10.7476 2.81002 10.6656L2.93777 10.9744ZM3.99944 4.42184L4.23671 4.65915L13.468 13.8922L13.726 14.1503L13.427 14.3596C13.3018 14.4472 13.1526 14.4941 12.9997 14.4937H13.0003V14.2907M3.99944 4.42184L12.9994 14.4937L13 14.2904M3.99944 4.42184L3.78476 4.67976L2.54672 6.16715C2.54669 6.16719 2.54666 6.16723 2.54664 6.16726C2.42804 6.30966 2.36688 6.49121 2.37514 6.67634C2.38339 6.86152 2.4605 7.03695 2.59135 7.16824L2.59171 7.16861L4.44933 9.02622C4.44933 9.02623 4.44934 9.02623 4.44934 9.02623C4.96601 9.54296 5.25634 10.2437 5.25652 10.9744M3.99944 4.42184L5.25652 10.9745M13.0003 14.2907L13.0348 14.3252L13.2514 14.1087M13.0003 14.2907L13 14.2904M13.0003 14.2907V14.1874M13.2514 14.1087L13.0758 13.8578C13.0597 13.869 13.0414 13.8764 13.0223 13.8795L13.2514 14.1087ZM13.2514 14.1087C13.1778 14.1602 13.0901 14.1877 13.0003 14.1874M13.0003 14.1874H12.8971L13 14.2904M13.0003 14.1874L13 14.2904M5.25652 10.9745L5.56277 10.9744H5.25652M5.25652 10.9745C5.25652 10.9745 5.25652 10.9745 5.25652 10.9744M5.25652 10.9745V10.9744M15.974 10.449L15.9737 10.4493C15.8347 10.5886 15.7566 10.7774 15.7565 10.9742C15.7565 10.9742 15.7565 10.9743 15.7565 10.9744L15.7548 13.2046L15.7547 13.3317L15.8447 13.4216L16.2818 13.8578L16.2822 13.8582L16.8908 14.4677L16.8913 14.4682L17.2121 14.7881C17.2122 14.7882 17.2123 14.7883 17.2124 14.7884C17.401 14.9771 17.5069 15.2331 17.5069 15.4999C17.5069 15.7669 17.4009 16.023 17.2121 16.2118C17.0233 16.4005 16.7673 16.5066 16.5003 16.5066C16.2334 16.5066 15.9774 16.4006 15.7886 16.212C15.7886 16.212 15.7886 16.2119 15.7886 16.2119C15.7886 16.2119 15.7885 16.2118 15.7884 16.2118L15.3293 15.7517L15.1177 15.5397L14.9011 15.7465C14.3892 16.2352 13.7084 16.5073 13.0008 16.5062H13.0003H6.00027C5.26926 16.5062 4.5682 16.2158 4.0513 15.6989C3.53441 15.182 3.24402 14.4809 3.24402 13.7499V10.9744V10.9744C3.24397 10.7775 3.16588 10.5887 3.02684 10.4493L3.02652 10.449L1.16808 8.5914C0.681836 8.10508 0.394956 7.45455 0.363775 6.76755C0.332594 6.08054 0.559364 5.4067 0.999559 4.87833L0.999585 4.8783L2.39083 3.20793L2.56991 2.99293L2.37191 2.79522L1.78757 2.21176C1.69409 2.11828 1.61994 2.0073 1.56935 1.88517C1.51876 1.76303 1.49272 1.63213 1.49272 1.49993C1.49272 1.36773 1.51876 1.23683 1.56935 1.1147C1.61994 0.992561 1.69409 0.881587 1.78757 0.788109C1.88105 0.694631 1.99202 0.62048 2.11416 0.56989C2.23629 0.5193 2.36719 0.493262 2.49939 0.493262C2.63159 0.493262 2.76249 0.5193 2.88463 0.56989C3.00676 0.62048 3.11774 0.694631 3.21121 0.788109L3.28679 0.863682L3.28734 0.864233L3.45829 1.03606L3.45884 1.03661L3.70227 1.28004L3.73047 1.30907L3.9147 1.49872L4.1292 1.34413C4.89649 0.791159 5.81833 0.493626 6.76412 0.493682H6.76414H6.87527C7.14214 0.493682 7.39809 0.599698 7.58679 0.788406C7.7755 0.977115 7.88152 1.23306 7.88152 1.49993C7.88152 1.92925 8.05206 2.34099 8.35564 2.64456C8.65921 2.94814 9.07095 3.11868 9.50027 3.11868C9.92959 3.11868 10.3413 2.94814 10.6449 2.64456C10.9485 2.34099 11.119 1.92925 11.119 1.49993C11.119 1.23306 11.225 0.977115 11.4137 0.788406C11.6024 0.599698 11.8584 0.493682 12.1253 0.493682H12.2364C12.8969 0.49371 13.5494 0.638965 14.1476 0.919163C14.7458 1.19936 15.2751 1.60763 15.698 2.11508C15.698 2.11509 15.698 2.1151 15.698 2.11511L18.0001 4.87833C18.4403 5.4067 18.6671 6.08054 18.6359 6.76755C18.6047 7.45455 18.3178 8.10508 17.8316 8.5914L15.974 10.449ZM13.2636 2.72754L12.9707 2.59537L12.8528 2.89424L12.8285 2.95566C12.4479 3.82571 11.7416 4.51214 10.8609 4.86777C9.97854 5.22406 8.99162 5.21986 8.11235 4.85607L7.77872 5.35561L7.80759 5.38448L8.26959 5.84648L9.47534 7.05223L9.73696 7.31386L9.99334 7.57024L9.99409 7.57098L10.1211 7.69711L10.1218 7.69785L10.3747 7.95067L10.3748 7.95086L10.8883 8.46517L10.8885 8.46536L11.5683 9.14523L11.5684 9.14534L12.4897 10.0657L12.4898 10.0658L12.8322 10.4082L12.8327 10.4087L13.0116 10.5885L13.0125 10.5894L13.2444 10.8204L13.6883 11.2626L13.7645 10.6407C13.8394 10.0297 14.1166 9.4614 14.552 9.02631L14.5521 9.02618L16.4089 7.16856L16.4089 7.16852C16.5402 7.03715 16.6175 6.86142 16.6258 6.67589C16.6341 6.49037 16.5726 6.30846 16.4535 6.16595L14.1526 3.40391L14.1525 3.40385C13.9111 3.11426 13.6079 2.88289 13.2636 2.72754Z" fill="white" stroke="#49C4CC" stroke-width="0.6125"/>
</svg>
