<svg width="45" height="46" viewBox="0 0 45 46" fill="none" xmlns="http://www.w3.org/2000/svg">
<g clip-path="url(#clip0_2016_64376)">
<path d="M22.5 45.5C34.9264 45.5 45 35.4264 45 23C45 10.5736 34.9264 0.5 22.5 0.5C10.0736 0.5 0 10.5736 0 23C0 35.4264 10.0736 45.5 22.5 45.5Z" fill="#F8F8F8"/>
<path d="M19.4712 24.872H16.8356C16.4219 24.872 16.2734 24.7222 16.2734 24.3096C16.2734 23.246 16.2734 22.1833 16.2734 21.1215C16.2734 20.7115 16.4299 20.5564 16.8382 20.5564H19.4712V18.2567C19.4399 17.2237 19.69 16.2014 20.195 15.2973C20.7201 14.3845 21.5614 13.6915 22.5628 13.3471C23.2127 13.1127 23.8997 12.9952 24.5912 13.0002H27.1977C27.5715 13.0002 27.728 13.1631 27.728 13.5258V16.5247C27.728 16.9005 27.5689 17.0503 27.1977 17.0503C26.4844 17.0503 25.7712 17.0503 25.0606 17.0792C24.35 17.1081 23.9628 17.4288 23.9628 18.1647C23.9469 18.9532 23.9628 19.7259 23.9628 20.5301H27.0253C27.4602 20.5301 27.6087 20.6773 27.6087 21.111C27.6087 22.1623 27.6087 23.2189 27.6087 24.2807C27.6087 24.7091 27.4708 24.8431 27.0333 24.8457H23.9469V33.3981C23.9469 33.8554 23.8037 34 23.3477 34H20.028C19.6276 34 19.4712 33.8449 19.4712 33.4481V24.872Z" fill="#4A6EA9"/>
</g>
<defs>
<clipPath id="clip0_2016_64376">
<rect width="45" height="45" fill="white" transform="translate(0 0.5)"/>
</clipPath>
</defs>
</svg>
