<svg width="20" height="21" viewBox="0 0 20 21" fill="none" xmlns="http://www.w3.org/2000/svg">
<g clip-path="url(#clip0_2011_88230)">
<path fill-rule="evenodd" clip-rule="evenodd" d="M11.1296 14.6768V16.0639H12.0512C12.6747 16.0639 13.1804 16.5695 13.1804 17.193C13.1804 17.8165 12.6747 18.3222 12.0512 18.3222H11.1296V19.3708C11.1296 19.9943 10.6239 20.5 10.0004 20.5C9.37691 20.5 8.87129 19.9944 8.87129 19.3708V18.3222H7.9493C7.32598 18.3222 6.82016 17.8164 6.82016 17.193C6.82016 16.5696 7.32598 16.0639 7.9493 16.0639H8.87129V14.6768C5.44555 14.1307 2.86719 11.1537 2.86719 7.63324C2.86719 3.69969 6.06684 0.5 10.0004 0.5C13.934 0.5 17.1338 3.69965 17.1338 7.63324C17.1338 11.1537 14.5554 14.1307 11.1296 14.6768ZM5.12531 7.63324C5.12531 10.3209 7.31277 12.5082 10.0004 12.5082C12.6881 12.5082 14.8755 10.321 14.8755 7.63324C14.8755 4.94547 12.6881 2.75832 10.0004 2.75832C7.31281 2.75832 5.12531 4.94555 5.12531 7.63324Z" fill="#11133A"/>
</g>
<defs>
<clipPath id="clip0_2011_88230">
<rect width="20" height="20" fill="white" transform="translate(0 0.5)"/>
</clipPath>
</defs>
</svg>
