<svg width="45" height="46" viewBox="0 0 45 46" fill="none" xmlns="http://www.w3.org/2000/svg">
<circle cx="22.5" cy="23" r="22.5" fill="#E7F4F8"/>
<g clip-path="url(#clip0_5604_727)">
<path d="M24.2518 20.8906H23.3594C23.3603 21.2355 23.363 22.3932 23.3646 22.7236C23.6844 22.722 24.047 22.7204 24.2518 22.7204C24.7642 22.7204 25.197 22.3014 25.197 21.8055C25.197 21.3096 24.7641 20.8906 24.2518 20.8906Z" fill="#009CFF"/>
<path d="M17.7734 23.7624H19.249L18.5146 21.8164L17.7734 23.7624Z" fill="#009CFF"/>
<path d="M32.9866 24.8555L31.5748 24.0405C31.6196 23.6748 31.6416 23.3314 31.6416 23C31.6416 22.6686 31.6196 22.3252 31.5748 21.9595L32.9866 21.1445C33.2892 20.9697 33.393 20.5827 33.2182 20.28L30.2161 15.0803C30.0414 14.7777 29.6544 14.674 29.3517 14.8487L27.9458 15.6604C27.3911 15.2501 26.7857 14.9028 26.1378 14.6231V12.9932C26.1378 12.6437 25.8545 12.3604 25.505 12.3604H19.5012C19.1517 12.3604 18.8683 12.6437 18.8683 12.9932V14.6231C18.2205 14.9027 17.6151 15.2501 17.0604 15.6603L15.6545 14.8487C15.3518 14.674 14.9648 14.7777 14.7901 15.0803L11.788 20.28C11.6133 20.5827 11.717 20.9697 12.0196 21.1445L13.4313 21.9595C13.3865 22.3252 13.3646 22.6686 13.3646 23C13.3646 23.3314 13.3865 23.6748 13.4313 24.0405L12.0196 24.8555C11.717 25.0303 11.6133 25.4173 11.788 25.72L14.7901 30.9196C14.9648 31.2223 15.3518 31.326 15.6545 31.1513L17.0604 30.3396C17.6151 30.7499 18.2205 31.0973 18.8683 31.3769V33.0068C18.8683 33.3563 19.1517 33.6396 19.5012 33.6396H25.5051C25.8545 33.6396 26.1379 33.3563 26.1379 33.0068V31.3769C26.7857 31.0972 27.3912 30.7498 27.9459 30.3396L29.3518 31.1513C29.6544 31.326 30.0414 31.2223 30.2162 30.9197L33.2182 25.72C33.393 25.4173 33.2893 25.0303 32.9866 24.8555ZM20.8972 26.3342C20.8236 26.362 20.7481 26.3752 20.6739 26.3752C20.4181 26.3752 20.1773 26.219 20.0817 25.9656L19.728 25.0283H17.2928L16.9351 25.9674C16.8107 26.294 16.4451 26.4579 16.1185 26.3336C15.7919 26.2092 15.628 25.8436 15.7524 25.517C15.7524 25.517 17.8154 20.1003 17.8174 20.0956C17.9341 19.8101 18.2089 19.6254 18.5173 19.625H18.5182C18.8263 19.625 19.1011 19.8091 19.2183 20.0942C19.2207 20.0999 21.2658 25.5188 21.2658 25.5188C21.3893 25.8458 21.2242 26.2108 20.8972 26.3342ZM24.2495 23.986C24.044 23.986 23.6766 23.9876 23.3552 23.9893V25.7422C23.3552 26.0917 23.0719 26.375 22.7224 26.375C22.3729 26.375 22.0896 26.0917 22.0896 25.7422C22.0896 25.7422 22.0896 20.2599 22.0896 20.2598C22.0891 20.0917 22.1555 19.9302 22.2742 19.811C22.3929 19.6919 22.5542 19.625 22.7224 19.625H24.2495C25.4686 19.625 26.4604 20.6032 26.4604 21.8055C26.4604 23.0078 25.4686 23.986 24.2495 23.986ZM28.5359 25.7422C28.5359 26.0917 28.2526 26.375 27.9031 26.375C27.5536 26.375 27.2703 26.0917 27.2703 25.7422V20.2578C27.2703 19.9083 27.5536 19.625 27.9031 19.625C28.2526 19.625 28.5359 19.9083 28.5359 20.2578V25.7422Z" fill="#009CFF"/>
</g>
<defs>
<clipPath id="clip0_5604_727">
<rect width="21.6" height="21.6" fill="white" transform="translate(11.7031 12.2002)"/>
</clipPath>
</defs>
</svg>
