<svg width="45" height="44" viewBox="0 0 45 44" fill="none" xmlns="http://www.w3.org/2000/svg">
<path d="M25.3617 9.53369L21.5919 13.3035C20.8846 14.0108 19.7377 14.0108 19.0305 13.3035C18.3232 12.5962 18.3232 11.4494 19.0305 10.7421L22.8003 6.97228C26.7632 3.00927 33.3932 3.00925 37.3563 6.97217L37.5276 7.14349C41.4907 11.1065 41.4909 17.7367 37.5278 21.6997L33.758 25.4695C33.0507 26.1768 31.9039 26.1768 31.1966 25.4695C30.4893 24.7623 30.4893 23.6154 31.1966 22.9082L34.9664 19.1383C37.5147 16.59 37.5147 12.2535 34.9664 9.7051L34.7951 9.53378C32.2467 6.98538 27.91 6.98529 25.3617 9.53369Z" fill="#40B3BA"/>
<path d="M13.8034 18.5305C14.5107 19.2378 14.5107 20.3846 13.8034 21.0919L10.0336 24.8615C7.48516 27.41 7.48516 31.7466 10.0336 34.2949L10.2049 34.4663C12.7534 37.0144 17.09 37.0146 19.6383 34.4663L23.4081 30.6966C24.1154 29.9892 25.2623 29.9892 25.9695 30.6965C26.6768 31.4039 26.6768 32.5506 25.9695 33.258L22.1997 37.0278C18.2367 40.9907 11.6066 40.9907 7.64349 37.0278L7.47215 36.8563C3.50938 32.8933 3.50918 26.2632 7.47215 22.3001L11.242 18.5305C11.9493 17.8232 13.0961 17.8232 13.8034 18.5305Z" fill="#40B3BA"/>
<path d="M27.9894 18.2209C28.6788 17.4749 28.6688 16.2759 27.9672 15.5429C27.2653 14.8099 26.1376 14.8205 25.4481 15.5666L16.0106 25.7791C15.3212 26.525 15.3312 27.7242 16.0329 28.4571C16.7347 29.1901 17.8625 29.1795 18.5519 28.4334L27.9894 18.2209Z" fill="#40B3BA"/>
</svg>
