<svg width="31" height="31" viewBox="0 0 31 31" fill="none" xmlns="http://www.w3.org/2000/svg">
<path fill-rule="evenodd" clip-rule="evenodd" d="M13.6411 4.56372H17.6714C19.0279 4.5637 20.1292 4.56368 21.0153 4.66963C21.939 4.7801 22.7323 5.01521 23.4256 5.55651C24.1189 6.0978 24.5394 6.81038 24.8706 7.67978C25.1883 8.51365 25.4554 9.58212 25.7843 10.8981L26.3882 13.3137H28.1562C28.674 13.3137 29.0938 13.7335 29.0938 14.2512C29.0938 14.769 28.674 15.1887 28.1562 15.1887H25.6759C25.6623 15.189 25.6487 15.189 25.6352 15.1887H5.67727C5.66377 15.189 5.65022 15.189 5.63665 15.1887H3.15625C2.63848 15.1887 2.21875 14.769 2.21875 14.2512C2.21875 13.7335 2.63848 13.3137 3.15625 13.3137H4.92427L5.52818 10.8981C5.85715 9.58212 6.12425 8.51365 6.44193 7.67978C6.77314 6.81038 7.19364 6.0978 7.88692 5.55651C8.58019 5.01521 9.37349 4.7801 10.2972 4.66963C11.1833 4.56368 12.2846 4.5637 13.6411 4.56372ZM6.85698 13.3137H24.4555L23.9795 11.4096C23.6329 10.0233 23.3915 9.0642 23.1184 8.34729C22.8543 7.65395 22.5956 7.28733 22.2717 7.03439C21.9477 6.78146 21.5293 6.61946 20.7926 6.53137C20.0309 6.44028 19.0419 6.43872 17.6129 6.43872H13.6996C12.2706 6.43872 11.2816 6.44028 10.5199 6.53137C9.78317 6.61946 9.36477 6.78146 9.04082 7.03439C8.71686 7.28733 8.45823 7.65395 8.19408 8.34729C7.92097 9.0642 7.67959 10.0233 7.33301 11.4096L6.85698 13.3137ZM8.78125 18.9387C6.88277 18.9387 5.34375 20.4777 5.34375 22.3762C5.34375 24.2747 6.88277 25.8137 8.78125 25.8137C10.6797 25.8137 12.2188 24.2747 12.2188 22.3762C12.2188 20.4777 10.6797 18.9387 8.78125 18.9387ZM3.46875 22.3762C3.46875 19.4422 5.84724 17.0637 8.78125 17.0637C11.2286 17.0637 13.2895 18.7186 13.9058 20.9704C15.0286 20.5183 16.2839 20.5183 17.4067 20.9704C18.0231 18.7186 20.0839 17.0637 22.5312 17.0637C25.4653 17.0637 27.8438 19.4422 27.8438 22.3762C27.8438 25.3102 25.4653 27.6887 22.5312 27.6887C19.7987 27.6887 17.548 25.6257 17.2518 22.9722L16.914 22.8033C16.1222 22.4074 15.1903 22.4074 14.3985 22.8033L14.0607 22.9722C13.7645 25.6257 11.5138 27.6887 8.78125 27.6887C5.84724 27.6887 3.46875 25.3102 3.46875 22.3762ZM22.5312 18.9387C20.6328 18.9387 19.0938 20.4777 19.0938 22.3762C19.0938 24.2747 20.6328 25.8137 22.5312 25.8137C24.4297 25.8137 25.9688 24.2747 25.9688 22.3762C25.9688 20.4777 24.4297 18.9387 22.5312 18.9387Z" fill="#009CFF"/>
</svg>
