<svg width="45" height="46" viewBox="0 0 45 46" fill="none" xmlns="http://www.w3.org/2000/svg">
<g clip-path="url(#clip0_2016_64375)">
<path d="M22.5 45.5C34.9264 45.5 45 35.4264 45 23C45 10.5736 34.9264 0.5 22.5 0.5C10.0736 0.5 0 10.5736 0 23C0 35.4264 10.0736 45.5 22.5 45.5Z" fill="#F8F8F8"/>
<path d="M33.5244 32.9998V25.298C33.5244 21.5286 32.7132 18.6279 28.3085 18.6279C26.1901 18.6279 24.77 19.7882 24.1899 20.8907H24.1295V18.9797H19.9531V32.9998H24.3001V26.0567C24.3001 24.2192 24.6466 22.4604 26.9251 22.4604C29.2036 22.4604 29.1879 24.5604 29.1879 26.1748V32.9998H33.5244Z" fill="#4875B4"/>
<path d="M12.8672 18.98H17.2194V33.0001H12.8672V18.98Z" fill="#4875B4"/>
<path d="M15.0436 12C14.5416 11.9979 14.0503 12.1451 13.6321 12.4227C13.2138 12.7004 12.8875 13.0961 12.6946 13.5595C12.5016 14.023 12.4507 14.5333 12.5484 15.0257C12.646 15.5181 12.8877 15.9705 13.2429 16.3252C13.598 16.68 14.0506 16.9213 14.5431 17.0184C15.0356 17.1155 15.5459 17.0641 16.0092 16.8707C16.4724 16.6772 16.8677 16.3505 17.145 15.932C17.4222 15.5135 17.5688 15.022 17.5662 14.52C17.5662 14.1889 17.5009 13.861 17.3741 13.5551C17.2473 13.2491 17.0615 12.9712 16.8272 12.7372C16.5929 12.5031 16.3148 12.3176 16.0088 12.1911C15.7027 12.0646 15.3747 11.9997 15.0436 12Z" fill="#4875B4"/>
</g>
<defs>
<clipPath id="clip0_2016_64375">
<rect width="45" height="45" fill="white" transform="translate(0 0.5)"/>
</clipPath>
</defs>
</svg>
