<svg width="45" height="46" viewBox="0 0 45 46" fill="none" xmlns="http://www.w3.org/2000/svg">
<g clip-path="url(#clip0_2016_64386)">
<path d="M45 23C45 10.5736 34.9264 0.5 22.5 0.5C10.0736 0.5 0 10.5736 0 23C0 35.4264 10.0736 45.5 22.5 45.5C34.9264 45.5 45 35.4264 45 23Z" fill="#F8F8F8"/>
<path d="M27.225 12H17.775C16.2434 12 14.7745 12.6084 13.6915 13.6915C12.6084 14.7745 12 16.2434 12 17.775V27.225C12 28.7566 12.6084 30.2255 13.6915 31.3085C14.7745 32.3916 16.2434 33 17.775 33H27.225C28.7566 33 30.2255 32.3916 31.3085 31.3085C32.3916 30.2255 33 28.7566 33 27.225V17.775C33 16.2434 32.3916 14.7745 31.3085 13.6915C30.2255 12.6084 28.7566 12 27.225 12ZM31.1625 26.3955C31.1625 27.6598 30.6603 28.8723 29.7663 29.7663C28.8723 30.6603 27.6598 31.1625 26.3955 31.1625H18.6045C17.3402 31.1625 16.1277 30.6603 15.2337 29.7663C14.3397 28.8723 13.8375 27.6598 13.8375 26.3955V18.6045C13.8375 17.3402 14.3397 16.1277 15.2337 15.2337C16.1277 14.3397 17.3402 13.8375 18.6045 13.8375H26.3955C27.6598 13.8375 28.8723 14.3397 29.7663 15.2337C30.6603 16.1277 31.1625 17.3402 31.1625 18.6045V26.3955Z" fill="white"/>
<path d="M27.225 12H17.775C16.2434 12 14.7745 12.6084 13.6915 13.6915C12.6084 14.7745 12 16.2434 12 17.775V27.225C12 28.7566 12.6084 30.2255 13.6915 31.3085C14.7745 32.3916 16.2434 33 17.775 33H27.225C28.7566 33 30.2255 32.3916 31.3085 31.3085C32.3916 30.2255 33 28.7566 33 27.225V17.775C33 16.2434 32.3916 14.7745 31.3085 13.6915C30.2255 12.6084 28.7566 12 27.225 12ZM31.1625 26.3955C31.1625 27.6598 30.6603 28.8723 29.7663 29.7663C28.8723 30.6603 27.6598 31.1625 26.3955 31.1625H18.6045C17.3402 31.1625 16.1277 30.6603 15.2337 29.7663C14.3397 28.8723 13.8375 27.6598 13.8375 26.3955V18.6045C13.8375 17.3402 14.3397 16.1277 15.2337 15.2337C16.1277 14.3397 17.3402 13.8375 18.6045 13.8375H26.3955C27.6598 13.8375 28.8723 14.3397 29.7663 15.2337C30.6603 16.1277 31.1625 17.3402 31.1625 18.6045V26.3955Z" fill="url(#paint0_linear_2016_64386)"/>
<path d="M26.3282 18.7096L26.2783 18.6597L26.2363 18.6177C25.2438 17.6286 23.8995 17.0736 22.4983 17.0742C21.7907 17.079 21.091 17.2232 20.4392 17.4985C19.7873 17.7738 19.1961 18.1749 18.6993 18.6788C18.2025 19.1826 17.8098 19.7795 17.5438 20.4351C17.2777 21.0908 17.1434 21.7925 17.1486 22.5001C17.1475 23.9361 17.7136 25.3144 18.7236 26.3352C19.2183 26.836 19.8078 27.2331 20.4577 27.5036C21.1076 27.774 21.8049 27.9122 22.5088 27.9102C23.5647 27.8881 24.5913 27.5592 25.4635 26.9636C26.3356 26.368 27.0156 25.5315 27.4205 24.5561C27.8254 23.5807 27.9378 22.5086 27.7438 21.4704C27.5498 20.4323 27.058 19.473 26.3282 18.7096ZM22.4983 26.0596C21.7923 26.0695 21.0993 25.8692 20.5074 25.4841C19.9155 25.099 19.4515 24.5466 19.1744 23.8972C18.8974 23.2477 18.8197 22.5305 18.9514 21.8367C19.083 21.143 19.4181 20.5041 19.9138 20.0013C20.4096 19.4985 21.0437 19.1545 21.7355 19.0131C22.4273 18.8716 23.1455 18.9392 23.7988 19.207C24.4522 19.4749 25.0111 19.9311 25.4044 20.5175C25.7978 21.1038 26.0079 21.794 26.008 22.5001C26.0114 22.9643 25.9234 23.4247 25.7488 23.8548C25.5743 24.285 25.3167 24.6765 24.9908 25.0071C24.6648 25.3377 24.2769 25.6008 23.8493 25.7814C23.4216 25.962 22.9625 26.0565 22.4983 26.0596Z" fill="white"/>
<path d="M26.3282 18.7096L26.2783 18.6597L26.2363 18.6177C25.2438 17.6286 23.8995 17.0736 22.4983 17.0742C21.7907 17.079 21.091 17.2232 20.4392 17.4985C19.7873 17.7738 19.1961 18.1749 18.6993 18.6788C18.2025 19.1826 17.8098 19.7795 17.5438 20.4351C17.2777 21.0908 17.1434 21.7925 17.1486 22.5001C17.1475 23.9361 17.7136 25.3144 18.7236 26.3352C19.2183 26.836 19.8078 27.2331 20.4577 27.5036C21.1076 27.774 21.8049 27.9122 22.5088 27.9102C23.5647 27.8881 24.5913 27.5592 25.4635 26.9636C26.3356 26.368 27.0156 25.5315 27.4205 24.5561C27.8254 23.5807 27.9378 22.5086 27.7438 21.4704C27.5498 20.4323 27.058 19.473 26.3282 18.7096ZM22.4983 26.0596C21.7923 26.0695 21.0993 25.8692 20.5074 25.4841C19.9155 25.099 19.4515 24.5466 19.1744 23.8972C18.8974 23.2477 18.8197 22.5305 18.9514 21.8367C19.083 21.143 19.4181 20.5041 19.9138 20.0013C20.4096 19.4985 21.0437 19.1545 21.7355 19.0131C22.4273 18.8716 23.1455 18.9392 23.7988 19.207C24.4522 19.4749 25.0111 19.9311 25.4044 20.5175C25.7978 21.1038 26.0079 21.794 26.008 22.5001C26.0114 22.9643 25.9234 23.4247 25.7488 23.8548C25.5743 24.285 25.3167 24.6765 24.9908 25.0071C24.6648 25.3377 24.2769 25.6008 23.8493 25.7814C23.4216 25.962 22.9625 26.0565 22.4983 26.0596Z" fill="url(#paint1_linear_2016_64386)"/>
<path d="M29.4339 16.8248C29.4353 16.9933 29.4035 17.1603 29.3402 17.3164C29.2769 17.4726 29.1835 17.6147 29.0652 17.7346C28.947 17.8546 28.8062 17.9501 28.651 18.0156C28.4958 18.0811 28.3293 18.1153 28.1608 18.1163C27.9938 18.1162 27.8284 18.083 27.6743 18.0186C27.5202 17.9542 27.3804 17.8598 27.2631 17.7409C27.0852 17.5605 26.9643 17.3319 26.9152 17.0833C26.8661 16.8348 26.891 16.5773 26.9869 16.3428C27.0827 16.1083 27.2453 15.9071 27.4545 15.7641C27.6636 15.6212 27.9101 15.5427 28.1634 15.5386C28.4599 15.5385 28.747 15.6426 28.9746 15.8326L29.0008 15.8588C29.0431 15.8933 29.0818 15.932 29.1163 15.9743L29.1452 16.0058C29.3331 16.2373 29.4351 16.5267 29.4339 16.8248Z" fill="white"/>
<path d="M29.4339 16.8248C29.4353 16.9933 29.4035 17.1603 29.3402 17.3164C29.2769 17.4726 29.1835 17.6147 29.0652 17.7346C28.947 17.8546 28.8062 17.9501 28.651 18.0156C28.4958 18.0811 28.3293 18.1153 28.1608 18.1163C27.9938 18.1162 27.8284 18.083 27.6743 18.0186C27.5202 17.9542 27.3804 17.8598 27.2631 17.7409C27.0852 17.5605 26.9643 17.3319 26.9152 17.0833C26.8661 16.8348 26.891 16.5773 26.9869 16.3428C27.0827 16.1083 27.2453 15.9071 27.4545 15.7641C27.6636 15.6212 27.9101 15.5427 28.1634 15.5386C28.4599 15.5385 28.747 15.6426 28.9746 15.8326L29.0008 15.8588C29.0431 15.8933 29.0818 15.932 29.1163 15.9743L29.1452 16.0058C29.3331 16.2373 29.4351 16.5267 29.4339 16.8248Z" fill="url(#paint2_linear_2016_64386)"/>
</g>
<defs>
<linearGradient id="paint0_linear_2016_64386" x1="15.0754" y1="15.0754" x2="29.9246" y2="29.9246" gradientUnits="userSpaceOnUse">
<stop stop-color="#FAE100"/>
<stop offset="0.15" stop-color="#FCB720"/>
<stop offset="0.3" stop-color="#FF7950"/>
<stop offset="0.5" stop-color="#FF1C74"/>
<stop offset="1" stop-color="#6C1CD1"/>
</linearGradient>
<linearGradient id="paint1_linear_2016_64386" x1="18.7137" y1="18.6611" x2="26.3751" y2="26.2179" gradientUnits="userSpaceOnUse">
<stop stop-color="#FAE100"/>
<stop offset="0.15" stop-color="#FCB720"/>
<stop offset="0.3" stop-color="#FF7950"/>
<stop offset="0.5" stop-color="#FF1C74"/>
<stop offset="1" stop-color="#6C1CD1"/>
</linearGradient>
<linearGradient id="paint2_linear_2016_64386" x1="27.2631" y1="15.9161" x2="29.0857" y2="17.7143" gradientUnits="userSpaceOnUse">
<stop stop-color="#FAE100"/>
<stop offset="0.15" stop-color="#FCB720"/>
<stop offset="0.3" stop-color="#FF7950"/>
<stop offset="0.5" stop-color="#FF1C74"/>
<stop offset="1" stop-color="#6C1CD1"/>
</linearGradient>
<clipPath id="clip0_2016_64386">
<rect width="45" height="45" fill="white" transform="translate(0 0.5)"/>
</clipPath>
</defs>
</svg>
