<svg width="335" height="73" viewBox="0 0 335 73" fill="none" xmlns="http://www.w3.org/2000/svg">
<path d="M1.69843 46.7158C1.10836 46.7158 0.677775 46.5803 0.406665 46.3092C0.135555 46.0381 0 45.6075 0 45.0174V18.632C0 18.0419 0.135555 17.6193 0.406665 17.3642C0.677775 17.0931 1.10836 16.9575 1.69843 16.9575H11.2192C14.1376 16.9575 16.6095 17.5316 18.6348 18.6798C20.6761 19.8121 22.2151 21.4866 23.2517 23.7034C24.3042 25.9201 24.8305 28.6232 24.8305 31.8127C24.8305 35.0182 24.3042 37.7293 23.2517 39.946C22.2151 42.1628 20.6761 43.8452 18.6348 44.9935C16.6095 46.1417 14.1376 46.7158 11.2192 46.7158H1.69843ZM11.2192 41.1421C13.4837 41.1421 15.1981 40.3527 16.3623 38.7739C17.5265 37.1791 18.1086 34.8587 18.1086 31.8127C18.1086 28.7827 17.5265 26.4782 16.3623 24.8994C15.1981 23.3047 13.4837 22.5073 11.2192 22.5073H6.60233V41.1421H11.2192Z" fill="#11133A"/>
<path d="M30.2856 46.7158C29.6955 46.7158 29.2649 46.5803 28.9938 46.3092C28.7227 46.0381 28.5871 45.6075 28.5871 45.0174V18.632C28.5871 18.0419 28.7227 17.6193 28.9938 17.3642C29.2649 17.0931 29.6955 16.9575 30.2856 16.9575H45.8584C46.305 16.9575 46.6239 17.1249 46.8153 17.4598C47.0226 17.7948 47.1263 18.337 47.1263 19.0865V20.3783C47.1263 21.1278 47.0226 21.67 46.8153 22.0049C46.6239 22.3398 46.305 22.5073 45.8584 22.5073H35.1416V28.679H44.7102C45.1567 28.679 45.4757 28.8465 45.6671 29.1814C45.8744 29.5163 45.9781 30.0585 45.9781 30.808V32.1237C45.9781 32.8733 45.8744 33.4155 45.6671 33.7504C45.4757 34.0853 45.1567 34.2527 44.7102 34.2527H35.1416V41.1421H45.8824C46.3289 41.1421 46.6479 41.3096 46.8392 41.6445C47.0465 41.9794 47.1502 42.5136 47.1502 43.2472V44.5868C47.1502 45.3364 47.0465 45.8786 46.8392 46.2135C46.6479 46.5484 46.3289 46.7158 45.8824 46.7158H30.2856Z" fill="#11133A"/>
<path d="M52.5574 46.7158C51.9674 46.7158 51.5368 46.5803 51.2657 46.3092C50.9945 46.0381 50.859 45.6075 50.859 45.0174V18.632C50.859 18.0419 50.9945 17.6193 51.2657 17.3642C51.5368 17.0931 51.9674 16.9575 52.5574 16.9575H68.1303C68.5768 16.9575 68.8958 17.1249 69.0872 17.4598C69.2945 17.7948 69.3981 18.337 69.3981 19.0865V20.3783C69.3981 21.1278 69.2945 21.67 69.0872 22.0049C68.8958 22.3398 68.5768 22.5073 68.1303 22.5073H57.4135V28.679H66.9821C67.4286 28.679 67.7476 28.8465 67.9389 29.1814C68.1462 29.5163 68.2499 30.0585 68.2499 30.808V32.1237C68.2499 32.8733 68.1462 33.4155 67.9389 33.7504C67.7476 34.0853 67.4286 34.2527 66.9821 34.2527H57.4135V41.1421H68.1542C68.6008 41.1421 68.9197 41.3096 69.1111 41.6445C69.3184 41.9794 69.4221 42.5136 69.4221 43.2472V44.5868C69.4221 45.3364 69.3184 45.8786 69.1111 46.2135C68.9197 46.5484 68.6008 46.7158 68.1542 46.7158H52.5574Z" fill="#11133A"/>
<path d="M75.6905 46.7876C73.9841 46.7876 73.1309 46.3411 73.1309 45.448V18.632C73.1309 18.0419 73.2664 17.6193 73.5375 17.3642C73.8086 17.0931 74.2392 16.9575 74.8293 16.9575H83.7759C86.4232 16.9575 88.7675 17.6034 90.8088 18.8951C92.8501 20.1869 93.8708 22.6428 93.8708 26.263C93.8708 28.7508 93.2807 30.6884 92.1006 32.0759C90.9205 33.4474 89.5888 34.3723 88.1057 34.8508C86.6385 35.3292 85.3308 35.5684 84.1826 35.5684H79.6853V45.448C79.6853 46.3411 78.8321 46.7876 77.1257 46.7876H75.6905ZM83.4649 29.9469C84.4856 29.9469 85.3547 29.6758 86.0724 29.1335C86.806 28.5913 87.1728 27.6345 87.1728 26.263C87.1728 24.8755 86.806 23.9027 86.0724 23.3445C85.3388 22.7864 84.4696 22.5073 83.4649 22.5073H79.6853V29.9469H83.4649Z" fill="#11133A"/>
<path d="M108.226 46.7876C106.519 46.7876 105.666 46.3411 105.666 45.448V18.2253C105.666 17.7629 105.873 17.42 106.288 17.1967C106.703 16.9575 107.348 16.8379 108.226 16.8379H110.044C110.729 16.8379 111.296 16.9176 111.742 17.0771C112.189 17.2366 112.555 17.5476 112.842 18.01L122.889 33.4872L124.038 35.2096V18.2253C124.038 17.7629 124.245 17.42 124.66 17.1967C125.074 16.9575 125.72 16.8379 126.597 16.8379H127.817C128.694 16.8379 129.332 16.9575 129.731 17.1967C130.146 17.42 130.353 17.7629 130.353 18.2253V45.448C130.353 46.3411 129.508 46.7876 127.817 46.7876H126.191C125.489 46.7876 124.923 46.7158 124.492 46.5723C124.062 46.4128 123.703 46.1098 123.416 45.6633L112.89 29.5641L111.981 28.2245V45.448C111.981 46.3411 111.136 46.7876 109.446 46.7876H108.226Z" fill="#11133A"/>
<path d="M147.458 47.0746C144.874 47.0746 142.658 46.668 140.808 45.8547C138.974 45.0413 137.57 43.8692 136.597 42.3382C135.625 40.7913 135.138 38.9334 135.138 36.7645V18.2253C135.138 17.7629 135.346 17.42 135.76 17.1967C136.175 16.9575 136.821 16.8379 137.698 16.8379H139.133C140.01 16.8379 140.648 16.9575 141.047 17.1967C141.461 17.42 141.669 17.7629 141.669 18.2253V36.3339C141.669 37.3227 141.908 38.2078 142.386 38.9892C142.881 39.7706 143.567 40.3846 144.444 40.8311C145.321 41.2617 146.326 41.477 147.458 41.477C148.59 41.477 149.595 41.2617 150.472 40.8311C151.365 40.3846 152.059 39.7706 152.553 38.9892C153.047 38.2078 153.295 37.3227 153.295 36.3339V18.2253C153.295 17.7629 153.494 17.42 153.893 17.1967C154.307 16.9575 154.953 16.8379 155.83 16.8379H157.242C158.119 16.8379 158.757 16.9575 159.155 17.1967C159.57 17.42 159.777 17.7629 159.777 18.2253V36.7645C159.777 38.9334 159.291 40.7913 158.318 42.3382C157.345 43.8692 155.934 45.0413 154.084 45.8547C152.25 46.668 150.041 47.0746 147.458 47.0746Z" fill="#11133A"/>
<path d="M166.261 46.7158C165.671 46.7158 165.24 46.5803 164.969 46.3092C164.698 46.0381 164.563 45.6075 164.563 45.0174V18.632C164.563 18.0419 164.698 17.6193 164.969 17.3642C165.24 17.0931 165.671 16.9575 166.261 16.9575H175.782C178.7 16.9575 181.172 17.5316 183.197 18.6798C185.239 19.8121 186.778 21.4866 187.814 23.7034C188.867 25.9201 189.393 28.6232 189.393 31.8127C189.393 35.0182 188.867 37.7293 187.814 39.946C186.778 42.1628 185.239 43.8452 183.197 44.9935C181.172 46.1417 178.7 46.7158 175.782 46.7158H166.261ZM175.782 41.1421C178.046 41.1421 179.761 40.3527 180.925 38.7739C182.089 37.1791 182.671 34.8587 182.671 31.8127C182.671 28.7827 182.089 26.4782 180.925 24.8994C179.761 23.3047 178.046 22.5073 175.782 22.5073H171.165V41.1421H175.782Z" fill="#11133A"/>
<path d="M194.848 46.7158C194.258 46.7158 193.828 46.5803 193.556 46.3092C193.285 46.0381 193.15 45.6075 193.15 45.0174V18.632C193.15 18.0419 193.285 17.6193 193.556 17.3642C193.828 17.0931 194.258 16.9575 194.848 16.9575H210.421C210.868 16.9575 211.187 17.1249 211.378 17.4598C211.585 17.7948 211.689 18.337 211.689 19.0865V20.3783C211.689 21.1278 211.585 21.67 211.378 22.0049C211.187 22.3398 210.868 22.5073 210.421 22.5073H199.704V28.679H209.273C209.719 28.679 210.038 28.8465 210.23 29.1814C210.437 29.5163 210.541 30.0585 210.541 30.808V32.1237C210.541 32.8733 210.437 33.4155 210.23 33.7504C210.038 34.0853 209.719 34.2527 209.273 34.2527H199.704V41.1421H210.445C210.892 41.1421 211.21 41.3096 211.402 41.6445C211.609 41.9794 211.713 42.5136 211.713 43.2472V44.5868C211.713 45.3364 211.609 45.8786 211.402 46.2135C211.21 46.5484 210.892 46.7158 210.445 46.7158H194.848Z" fill="#11133A"/>
<mask id="path-2-outside-1_5700_19845" maskUnits="userSpaceOnUse" x="165.203" y="0" width="170" height="73" fill="black">
<rect fill="white" x="165.203" width="170" height="73"/>
<path d="M220.908 17.0072C220.523 17.0072 220.138 16.9247 219.753 16.7597C219.423 16.5397 219.148 16.3196 218.928 16.0996C218.378 15.4945 217.965 14.8069 217.69 14.0368C217.415 13.2117 217.278 12.4141 217.278 11.644C217.278 10.1038 217.635 8.81109 218.35 7.76594C219.946 5.67565 221.926 4.13544 224.291 3.1453C226.712 2.15516 229.737 1.66009 233.367 1.66009C233.808 1.66009 234.248 1.66009 234.688 1.66009C235.183 1.66009 235.65 1.6876 236.09 1.7426C240.216 1.96263 244.259 2.37519 248.22 2.98028C252.18 3.58536 256.388 3.8879 260.844 3.8879C263.264 3.8879 265.437 3.77789 267.362 3.55786C269.343 3.28282 270.635 2.81525 271.24 2.15516H271.405C272.065 2.15516 272.395 2.51271 272.395 3.22781C272.34 4.27296 271.735 4.96055 270.58 5.2906C269.48 5.56563 268.297 5.70315 267.032 5.70315C266.152 5.70315 265.299 5.67565 264.474 5.62064C263.649 5.56564 262.989 5.51063 262.494 5.45562C259.304 5.18058 255.618 4.79553 251.438 4.30046C247.312 3.75038 243.241 3.47534 239.226 3.47534C235.375 3.47534 231.827 3.8879 228.582 4.71302C225.391 5.53813 222.916 7.16086 221.156 9.5812C220.661 10.2963 220.303 10.9839 220.083 11.644C219.863 12.3041 219.753 12.9367 219.753 13.5417C219.753 14.3119 219.918 14.9995 220.248 15.6045C220.468 15.8246 220.716 16.0721 220.991 16.3471C221.266 16.5672 221.513 16.6772 221.733 16.6772C221.513 16.8972 221.238 17.0072 220.908 17.0072ZM183.035 62.306C182.595 62.306 182.128 62.2785 181.633 62.2235C181.138 62.2235 180.67 62.196 180.23 62.141C177.81 61.811 175.527 61.1509 173.382 60.1607C171.236 59.1706 169.504 57.7954 168.183 56.0352C166.863 54.2749 166.203 52.1021 166.203 49.5168C166.203 48.6366 166.286 47.7015 166.451 46.7114C166.836 44.9511 167.468 43.3834 168.348 42.0082C169.174 40.633 170.054 39.5604 170.989 38.7903C171.924 38.0202 172.667 37.6351 173.217 37.6351C173.437 37.6351 173.657 37.7451 173.877 37.9652C172.667 38.7353 171.704 40.193 170.989 42.3383C170.219 44.4286 169.834 46.5188 169.834 48.6091C169.834 49.7643 169.944 50.7544 170.164 51.5795C170.824 54.1099 172.309 56.2827 174.619 58.098C176.93 59.9682 179.928 60.9034 183.613 60.9034C187.739 60.9034 192.029 59.7757 196.485 57.5204C200.94 55.2651 205.396 52.3772 209.852 48.8567C213.427 46.0513 217.03 42.7783 220.661 39.0378C224.346 35.2423 228.114 31.2542 231.965 27.0736H211.337L212.245 25.9185H232.955C233.065 25.8085 233.175 25.7259 233.285 25.6709C233.395 25.5609 233.478 25.4509 233.533 25.3409C235.348 23.4156 237.383 21.2428 239.638 18.8225C241.894 16.4021 244.424 14.0918 247.229 11.8915C250.09 9.6362 253.198 7.90346 256.553 6.69329C258.533 6.0332 259.771 5.70315 260.266 5.70315C260.706 5.70315 260.926 5.81317 260.926 6.0332C260.926 6.19822 260.871 6.41826 260.761 6.69329C259.606 6.69329 258.258 7.02334 256.718 7.68343C255.233 8.28852 253.775 9.05862 252.345 9.99375C250.915 10.8739 249.677 11.754 248.632 12.6341C247.092 14.0093 245.607 15.467 244.176 17.0072C242.801 18.4924 241.454 20.0327 240.133 21.6279L236.585 25.9185H244.011C245.882 23.6632 247.779 21.4904 249.705 19.4001C251.63 17.2548 253.528 15.2745 255.398 13.4592C256.608 12.2491 257.928 11.0939 259.359 9.99375C260.789 8.8936 262.192 7.98597 263.567 7.27087C264.942 6.50076 266.152 6.11571 267.197 6.11571C266.482 6.66579 265.382 7.68343 263.897 9.16864C262.412 10.5988 261.036 12.0015 259.771 13.3767C258.066 15.192 256.113 17.3923 253.913 19.9776C251.713 22.563 249.54 25.2309 247.394 27.9813C245.249 30.7316 243.324 33.317 241.619 35.7373C239.913 38.1027 238.676 40.0279 237.906 41.5131C237.521 42.1732 237.191 42.8608 236.915 43.5759C236.64 44.291 236.503 44.9511 236.503 45.5562C236.503 46.6014 236.97 47.1239 237.906 47.1239C238.566 47.1239 239.556 46.7939 240.876 46.1338C242.251 45.3637 243.544 44.3735 244.754 43.1634C245.964 41.8982 247.229 40.4955 248.55 38.9553C248.715 38.9553 248.797 39.0378 248.797 39.2028C248.797 39.4229 248.687 39.7254 248.467 40.1105C248.302 40.4955 248.192 40.798 248.137 41.0181C245.937 43.5484 243.874 45.4462 241.949 46.7114C240.023 47.9765 238.043 48.6091 236.008 48.6091C234.743 48.6091 233.835 48.3341 233.285 47.784C232.735 47.1789 232.46 46.4363 232.46 45.5562C232.46 44.6211 232.652 43.6034 233.037 42.5033C233.478 41.4031 234.028 40.303 234.688 39.2028C235.733 37.3326 236.97 35.3798 238.401 33.3445C239.886 31.2542 241.454 29.1639 243.104 27.0736H235.595C231.8 31.5843 227.784 35.9849 223.549 40.2755C219.368 44.5111 214.582 48.4991 209.192 52.2396C204.956 55.2101 200.583 57.6304 196.072 59.5007C191.617 61.3709 187.271 62.306 183.035 62.306Z"/>
<path d="M237.539 48.6091C237.429 48.6091 237.374 48.5816 237.374 48.5266C237.374 48.5266 237.456 48.4716 237.621 48.3616C237.786 48.2516 238.034 48.1141 238.364 47.949C240.289 47.0139 242.049 45.8037 243.645 44.3185C245.185 42.7783 246.67 41.1556 248.1 39.4504C249.09 38.1852 250.328 36.59 251.813 34.6647C253.354 32.6844 254.949 30.5941 256.599 28.3938C258.304 26.1385 259.927 23.9932 261.467 21.9579C263.007 19.9226 264.328 18.1899 265.428 16.7597C266.803 15.1095 268.206 13.5693 269.636 12.1391C271.121 10.6538 272.551 9.47118 273.926 8.59106C275.302 7.65593 276.484 7.18836 277.474 7.18836C278.189 7.18836 278.74 7.40839 279.125 7.84845C279.51 8.23351 279.702 8.67357 279.702 9.16864C279.702 9.99375 279.29 10.6263 278.465 11.0664C276.539 11.0664 274.669 11.6165 272.854 12.7166C271.038 13.7618 269.306 15.137 267.656 16.8422C266.005 18.4924 264.493 20.1977 263.117 21.9579C264.218 22.178 265.345 22.343 266.5 22.453C267.711 22.508 268.838 22.5355 269.883 22.5355C270.763 22.5355 271.561 22.508 272.276 22.453C273.046 22.398 273.624 22.3155 274.009 22.2055C274.504 22.2055 274.752 22.3155 274.752 22.5355C274.807 22.7005 274.779 22.838 274.669 22.9481C274.449 23.1681 273.981 23.6632 273.266 24.4333C272.606 25.2034 271.836 26.056 270.956 26.9911C270.131 27.8712 269.361 28.7239 268.646 29.549C267.931 30.3191 267.408 30.8967 267.078 31.2817C265.373 33.317 263.667 35.5448 261.962 37.9652C260.312 40.3855 259.157 42.5583 258.497 44.4836C258.277 44.9786 258.167 45.4462 258.167 45.8863C258.167 46.6564 258.524 47.0414 259.239 47.0414C260.009 47.0414 260.89 46.6839 261.88 45.9688C262.925 45.2537 263.915 44.4286 264.85 43.4934C265.84 42.5033 266.693 41.5957 267.408 40.7705C268.178 39.8904 268.673 39.3128 268.893 39.0378C269.058 39.0378 269.141 39.1203 269.141 39.2853C269.141 39.5054 269.031 39.8079 268.811 40.193C268.646 40.523 268.536 40.798 268.481 41.0181C267.656 42.0082 266.665 43.1084 265.51 44.3185C264.355 45.4737 263.117 46.4913 261.797 47.3715C260.532 48.1966 259.267 48.6091 258.002 48.6091C256.626 48.6091 255.636 48.2791 255.031 47.619C254.481 46.9039 254.206 46.0238 254.206 44.9786C254.206 44.3735 254.289 43.741 254.454 43.0809C254.784 41.4306 255.609 39.6979 256.929 37.8826C258.249 36.0674 259.817 34.2521 261.632 32.4369C263.447 30.6216 265.29 28.9714 267.16 27.4862C269.086 26.001 270.791 24.7633 272.276 23.7732C272.001 23.8282 271.616 23.8832 271.121 23.9382C270.626 23.9382 270.076 23.9382 269.471 23.9382C268.206 23.9382 266.83 23.8832 265.345 23.7732C263.915 23.6082 262.87 23.3881 262.21 23.1131C262.045 23.2781 261.852 23.5256 261.632 23.8557C260.477 25.3959 259.129 27.1836 257.589 29.2189C256.104 31.2542 254.536 33.3445 252.886 35.4898C251.236 37.6351 249.641 39.6154 248.1 41.4306C247.33 42.3108 246.395 43.3284 245.295 44.4836C244.195 45.5837 242.985 46.5463 241.664 47.3715C240.344 48.1966 238.969 48.6091 237.539 48.6091Z"/>
<path d="M279.13 71.8774C273.3 71.8774 269.119 70.4747 266.589 67.6693C264.003 64.8639 262.876 61.2884 263.206 56.9428C263.536 52.9272 264.526 49.0217 266.176 45.2262C267.826 41.3756 269.917 37.6901 272.447 34.1696C274.977 30.5941 277.755 27.1836 280.781 23.9382C283.806 20.6927 286.804 17.6673 289.774 14.8619C289.059 14.8069 288.262 14.7794 287.382 14.7794C286.556 14.7244 285.704 14.6969 284.824 14.6969C282.953 14.6969 281.083 14.8344 279.213 15.1095C277.398 15.3845 276.022 15.9896 275.087 16.9247C274.592 16.9247 274.345 16.6772 274.345 16.1821C274.345 15.137 275.225 14.4219 276.985 14.0368C278.8 13.5968 281.056 13.3767 283.751 13.3767C284.851 13.3767 286.006 13.4042 287.217 13.4592C288.427 13.5142 289.664 13.5968 290.93 13.7068C291.755 12.9367 292.58 12.2491 293.405 11.644C294.23 11.0389 294.973 10.5438 295.633 10.1588C297.283 9.16864 298.686 8.42603 299.841 7.93097C300.996 7.4359 302.014 7.18836 302.894 7.18836C301.684 7.90346 300.281 8.83859 298.686 9.99375C297.145 11.1489 295.55 12.5241 293.9 14.1193C296.65 14.3394 299.538 14.6144 302.564 14.9444C305.589 15.2195 308.587 15.357 311.557 15.357C313.868 15.357 316.178 15.192 318.488 14.8619C320.854 14.4769 322.999 13.8993 324.924 13.1292C326.905 12.3591 328.472 11.3414 329.627 10.0763C330.783 8.81109 331.36 7.27087 331.36 5.45562C331.36 4.35547 331.113 3.39283 330.618 2.56772C330.123 1.7426 329.572 1.33005 328.967 1.33005C329.187 1.11002 329.49 1 329.875 1C331.14 1 332.13 1.57758 332.845 2.73274C333.616 3.8879 334.001 5.01556 334.001 6.11571C334.001 8.26101 333.423 10.0213 332.268 11.3964C331.168 12.7716 329.682 13.8443 327.812 14.6144C325.997 15.3845 324.017 15.9346 321.871 16.2646C319.726 16.5947 317.636 16.7597 315.601 16.7597C311.64 16.7597 307.789 16.5397 304.049 16.0996C300.363 15.6595 296.623 15.302 292.827 15.027C289.857 17.8874 286.804 21.1328 283.669 24.7633C280.533 28.3938 277.755 32.2169 275.335 36.2324C274.125 38.1577 272.915 40.4405 271.704 43.0809C270.494 45.7212 269.477 48.4441 268.651 51.2495C267.826 54.0549 267.414 56.7228 267.414 59.2531C267.414 61.3984 267.799 63.3237 268.569 65.0289C269.394 66.7892 270.714 68.1644 272.53 69.1545C274.4 70.1996 276.903 70.7222 280.038 70.7222C282.678 70.7222 285.401 70.0071 288.207 68.5769C291.067 67.2017 293.817 65.1664 296.458 62.4711C299.153 59.7757 301.519 56.5027 303.554 52.6522C303.994 51.7721 304.489 50.6169 305.039 49.1867C305.644 47.8115 306.167 46.3538 306.607 44.8136C307.047 43.2184 307.267 41.7332 307.267 40.358C307.267 38.9278 306.909 37.7176 306.194 36.7275C305.534 35.7373 304.296 35.2423 302.481 35.2423C300.336 35.2423 298.356 35.8749 296.54 37.14C294.725 38.4052 293.102 39.9729 291.672 41.8432C290.297 43.7135 289.087 45.5837 288.042 47.454C287.052 49.3242 286.309 50.892 285.814 52.1571C285.319 53.4223 285.099 54.0549 285.154 54.0549C285.099 54.0549 285.016 53.8349 284.906 53.3948C284.851 52.9547 284.824 52.5422 284.824 52.1571C284.824 51.8821 284.851 51.6896 284.906 51.5795C285.016 51.0295 285.319 50.0668 285.814 48.6916C286.364 47.3715 287.107 45.8863 288.042 44.236C288.977 42.5858 290.132 40.9906 291.507 39.4504C292.937 37.8551 294.56 36.5625 296.375 35.5723C298.246 34.5272 300.336 34.0046 302.646 34.0046C305.287 34.0046 307.102 34.8297 308.092 36.4799C309.137 38.0752 309.66 39.9179 309.66 42.0082C309.66 43.8785 309.357 45.8312 308.752 47.8665C308.202 49.9018 307.542 51.5796 306.772 52.8997C303.306 59.3356 299.098 64.0938 294.148 67.1742C289.252 70.3097 284.246 71.8774 279.13 71.8774Z"/>
</mask>
<path d="M220.908 17.0072C220.523 17.0072 220.138 16.9247 219.753 16.7597C219.423 16.5397 219.148 16.3196 218.928 16.0996C218.378 15.4945 217.965 14.8069 217.69 14.0368C217.415 13.2117 217.278 12.4141 217.278 11.644C217.278 10.1038 217.635 8.81109 218.35 7.76594C219.946 5.67565 221.926 4.13544 224.291 3.1453C226.712 2.15516 229.737 1.66009 233.367 1.66009C233.808 1.66009 234.248 1.66009 234.688 1.66009C235.183 1.66009 235.65 1.6876 236.09 1.7426C240.216 1.96263 244.259 2.37519 248.22 2.98028C252.18 3.58536 256.388 3.8879 260.844 3.8879C263.264 3.8879 265.437 3.77789 267.362 3.55786C269.343 3.28282 270.635 2.81525 271.24 2.15516H271.405C272.065 2.15516 272.395 2.51271 272.395 3.22781C272.34 4.27296 271.735 4.96055 270.58 5.2906C269.48 5.56563 268.297 5.70315 267.032 5.70315C266.152 5.70315 265.299 5.67565 264.474 5.62064C263.649 5.56564 262.989 5.51063 262.494 5.45562C259.304 5.18058 255.618 4.79553 251.438 4.30046C247.312 3.75038 243.241 3.47534 239.226 3.47534C235.375 3.47534 231.827 3.8879 228.582 4.71302C225.391 5.53813 222.916 7.16086 221.156 9.5812C220.661 10.2963 220.303 10.9839 220.083 11.644C219.863 12.3041 219.753 12.9367 219.753 13.5417C219.753 14.3119 219.918 14.9995 220.248 15.6045C220.468 15.8246 220.716 16.0721 220.991 16.3471C221.266 16.5672 221.513 16.6772 221.733 16.6772C221.513 16.8972 221.238 17.0072 220.908 17.0072ZM183.035 62.306C182.595 62.306 182.128 62.2785 181.633 62.2235C181.138 62.2235 180.67 62.196 180.23 62.141C177.81 61.811 175.527 61.1509 173.382 60.1607C171.236 59.1706 169.504 57.7954 168.183 56.0352C166.863 54.2749 166.203 52.1021 166.203 49.5168C166.203 48.6366 166.286 47.7015 166.451 46.7114C166.836 44.9511 167.468 43.3834 168.348 42.0082C169.174 40.633 170.054 39.5604 170.989 38.7903C171.924 38.0202 172.667 37.6351 173.217 37.6351C173.437 37.6351 173.657 37.7451 173.877 37.9652C172.667 38.7353 171.704 40.193 170.989 42.3383C170.219 44.4286 169.834 46.5188 169.834 48.6091C169.834 49.7643 169.944 50.7544 170.164 51.5795C170.824 54.1099 172.309 56.2827 174.619 58.098C176.93 59.9682 179.928 60.9034 183.613 60.9034C187.739 60.9034 192.029 59.7757 196.485 57.5204C200.94 55.2651 205.396 52.3772 209.852 48.8567C213.427 46.0513 217.03 42.7783 220.661 39.0378C224.346 35.2423 228.114 31.2542 231.965 27.0736H211.337L212.245 25.9185H232.955C233.065 25.8085 233.175 25.7259 233.285 25.6709C233.395 25.5609 233.478 25.4509 233.533 25.3409C235.348 23.4156 237.383 21.2428 239.638 18.8225C241.894 16.4021 244.424 14.0918 247.229 11.8915C250.09 9.6362 253.198 7.90346 256.553 6.69329C258.533 6.0332 259.771 5.70315 260.266 5.70315C260.706 5.70315 260.926 5.81317 260.926 6.0332C260.926 6.19822 260.871 6.41826 260.761 6.69329C259.606 6.69329 258.258 7.02334 256.718 7.68343C255.233 8.28852 253.775 9.05862 252.345 9.99375C250.915 10.8739 249.677 11.754 248.632 12.6341C247.092 14.0093 245.607 15.467 244.176 17.0072C242.801 18.4924 241.454 20.0327 240.133 21.6279L236.585 25.9185H244.011C245.882 23.6632 247.779 21.4904 249.705 19.4001C251.63 17.2548 253.528 15.2745 255.398 13.4592C256.608 12.2491 257.928 11.0939 259.359 9.99375C260.789 8.8936 262.192 7.98597 263.567 7.27087C264.942 6.50076 266.152 6.11571 267.197 6.11571C266.482 6.66579 265.382 7.68343 263.897 9.16864C262.412 10.5988 261.036 12.0015 259.771 13.3767C258.066 15.192 256.113 17.3923 253.913 19.9776C251.713 22.563 249.54 25.2309 247.394 27.9813C245.249 30.7316 243.324 33.317 241.619 35.7373C239.913 38.1027 238.676 40.0279 237.906 41.5131C237.521 42.1732 237.191 42.8608 236.915 43.5759C236.64 44.291 236.503 44.9511 236.503 45.5562C236.503 46.6014 236.97 47.1239 237.906 47.1239C238.566 47.1239 239.556 46.7939 240.876 46.1338C242.251 45.3637 243.544 44.3735 244.754 43.1634C245.964 41.8982 247.229 40.4955 248.55 38.9553C248.715 38.9553 248.797 39.0378 248.797 39.2028C248.797 39.4229 248.687 39.7254 248.467 40.1105C248.302 40.4955 248.192 40.798 248.137 41.0181C245.937 43.5484 243.874 45.4462 241.949 46.7114C240.023 47.9765 238.043 48.6091 236.008 48.6091C234.743 48.6091 233.835 48.3341 233.285 47.784C232.735 47.1789 232.46 46.4363 232.46 45.5562C232.46 44.6211 232.652 43.6034 233.037 42.5033C233.478 41.4031 234.028 40.303 234.688 39.2028C235.733 37.3326 236.97 35.3798 238.401 33.3445C239.886 31.2542 241.454 29.1639 243.104 27.0736H235.595C231.8 31.5843 227.784 35.9849 223.549 40.2755C219.368 44.5111 214.582 48.4991 209.192 52.2396C204.956 55.2101 200.583 57.6304 196.072 59.5007C191.617 61.3709 187.271 62.306 183.035 62.306Z" fill="#49C4CC"/>
<path d="M237.539 48.6091C237.429 48.6091 237.374 48.5816 237.374 48.5266C237.374 48.5266 237.456 48.4716 237.621 48.3616C237.786 48.2516 238.034 48.1141 238.364 47.949C240.289 47.0139 242.049 45.8037 243.645 44.3185C245.185 42.7783 246.67 41.1556 248.1 39.4504C249.09 38.1852 250.328 36.59 251.813 34.6647C253.354 32.6844 254.949 30.5941 256.599 28.3938C258.304 26.1385 259.927 23.9932 261.467 21.9579C263.007 19.9226 264.328 18.1899 265.428 16.7597C266.803 15.1095 268.206 13.5693 269.636 12.1391C271.121 10.6538 272.551 9.47118 273.926 8.59106C275.302 7.65593 276.484 7.18836 277.474 7.18836C278.189 7.18836 278.74 7.40839 279.125 7.84845C279.51 8.23351 279.702 8.67357 279.702 9.16864C279.702 9.99375 279.29 10.6263 278.465 11.0664C276.539 11.0664 274.669 11.6165 272.854 12.7166C271.038 13.7618 269.306 15.137 267.656 16.8422C266.005 18.4924 264.493 20.1977 263.117 21.9579C264.218 22.178 265.345 22.343 266.5 22.453C267.711 22.508 268.838 22.5355 269.883 22.5355C270.763 22.5355 271.561 22.508 272.276 22.453C273.046 22.398 273.624 22.3155 274.009 22.2055C274.504 22.2055 274.752 22.3155 274.752 22.5355C274.807 22.7005 274.779 22.838 274.669 22.9481C274.449 23.1681 273.981 23.6632 273.266 24.4333C272.606 25.2034 271.836 26.056 270.956 26.9911C270.131 27.8712 269.361 28.7239 268.646 29.549C267.931 30.3191 267.408 30.8967 267.078 31.2817C265.373 33.317 263.667 35.5448 261.962 37.9652C260.312 40.3855 259.157 42.5583 258.497 44.4836C258.277 44.9786 258.167 45.4462 258.167 45.8863C258.167 46.6564 258.524 47.0414 259.239 47.0414C260.009 47.0414 260.89 46.6839 261.88 45.9688C262.925 45.2537 263.915 44.4286 264.85 43.4934C265.84 42.5033 266.693 41.5957 267.408 40.7705C268.178 39.8904 268.673 39.3128 268.893 39.0378C269.058 39.0378 269.141 39.1203 269.141 39.2853C269.141 39.5054 269.031 39.8079 268.811 40.193C268.646 40.523 268.536 40.798 268.481 41.0181C267.656 42.0082 266.665 43.1084 265.51 44.3185C264.355 45.4737 263.117 46.4913 261.797 47.3715C260.532 48.1966 259.267 48.6091 258.002 48.6091C256.626 48.6091 255.636 48.2791 255.031 47.619C254.481 46.9039 254.206 46.0238 254.206 44.9786C254.206 44.3735 254.289 43.741 254.454 43.0809C254.784 41.4306 255.609 39.6979 256.929 37.8826C258.249 36.0674 259.817 34.2521 261.632 32.4369C263.447 30.6216 265.29 28.9714 267.16 27.4862C269.086 26.001 270.791 24.7633 272.276 23.7732C272.001 23.8282 271.616 23.8832 271.121 23.9382C270.626 23.9382 270.076 23.9382 269.471 23.9382C268.206 23.9382 266.83 23.8832 265.345 23.7732C263.915 23.6082 262.87 23.3881 262.21 23.1131C262.045 23.2781 261.852 23.5256 261.632 23.8557C260.477 25.3959 259.129 27.1836 257.589 29.2189C256.104 31.2542 254.536 33.3445 252.886 35.4898C251.236 37.6351 249.641 39.6154 248.1 41.4306C247.33 42.3108 246.395 43.3284 245.295 44.4836C244.195 45.5837 242.985 46.5463 241.664 47.3715C240.344 48.1966 238.969 48.6091 237.539 48.6091Z" fill="#49C4CC"/>
<path d="M279.13 71.8774C273.3 71.8774 269.119 70.4747 266.589 67.6693C264.003 64.8639 262.876 61.2884 263.206 56.9428C263.536 52.9272 264.526 49.0217 266.176 45.2262C267.826 41.3756 269.917 37.6901 272.447 34.1696C274.977 30.5941 277.755 27.1836 280.781 23.9382C283.806 20.6927 286.804 17.6673 289.774 14.8619C289.059 14.8069 288.262 14.7794 287.382 14.7794C286.556 14.7244 285.704 14.6969 284.824 14.6969C282.953 14.6969 281.083 14.8344 279.213 15.1095C277.398 15.3845 276.022 15.9896 275.087 16.9247C274.592 16.9247 274.345 16.6772 274.345 16.1821C274.345 15.137 275.225 14.4219 276.985 14.0368C278.8 13.5968 281.056 13.3767 283.751 13.3767C284.851 13.3767 286.006 13.4042 287.217 13.4592C288.427 13.5142 289.664 13.5968 290.93 13.7068C291.755 12.9367 292.58 12.2491 293.405 11.644C294.23 11.0389 294.973 10.5438 295.633 10.1588C297.283 9.16864 298.686 8.42603 299.841 7.93097C300.996 7.4359 302.014 7.18836 302.894 7.18836C301.684 7.90346 300.281 8.83859 298.686 9.99375C297.145 11.1489 295.55 12.5241 293.9 14.1193C296.65 14.3394 299.538 14.6144 302.564 14.9444C305.589 15.2195 308.587 15.357 311.557 15.357C313.868 15.357 316.178 15.192 318.488 14.8619C320.854 14.4769 322.999 13.8993 324.924 13.1292C326.905 12.3591 328.472 11.3414 329.627 10.0763C330.783 8.81109 331.36 7.27087 331.36 5.45562C331.36 4.35547 331.113 3.39283 330.618 2.56772C330.123 1.7426 329.572 1.33005 328.967 1.33005C329.187 1.11002 329.49 1 329.875 1C331.14 1 332.13 1.57758 332.845 2.73274C333.616 3.8879 334.001 5.01556 334.001 6.11571C334.001 8.26101 333.423 10.0213 332.268 11.3964C331.168 12.7716 329.682 13.8443 327.812 14.6144C325.997 15.3845 324.017 15.9346 321.871 16.2646C319.726 16.5947 317.636 16.7597 315.601 16.7597C311.64 16.7597 307.789 16.5397 304.049 16.0996C300.363 15.6595 296.623 15.302 292.827 15.027C289.857 17.8874 286.804 21.1328 283.669 24.7633C280.533 28.3938 277.755 32.2169 275.335 36.2324C274.125 38.1577 272.915 40.4405 271.704 43.0809C270.494 45.7212 269.477 48.4441 268.651 51.2495C267.826 54.0549 267.414 56.7228 267.414 59.2531C267.414 61.3984 267.799 63.3237 268.569 65.0289C269.394 66.7892 270.714 68.1644 272.53 69.1545C274.4 70.1996 276.903 70.7222 280.038 70.7222C282.678 70.7222 285.401 70.0071 288.207 68.5769C291.067 67.2017 293.817 65.1664 296.458 62.4711C299.153 59.7757 301.519 56.5027 303.554 52.6522C303.994 51.7721 304.489 50.6169 305.039 49.1867C305.644 47.8115 306.167 46.3538 306.607 44.8136C307.047 43.2184 307.267 41.7332 307.267 40.358C307.267 38.9278 306.909 37.7176 306.194 36.7275C305.534 35.7373 304.296 35.2423 302.481 35.2423C300.336 35.2423 298.356 35.8749 296.54 37.14C294.725 38.4052 293.102 39.9729 291.672 41.8432C290.297 43.7135 289.087 45.5837 288.042 47.454C287.052 49.3242 286.309 50.892 285.814 52.1571C285.319 53.4223 285.099 54.0549 285.154 54.0549C285.099 54.0549 285.016 53.8349 284.906 53.3948C284.851 52.9547 284.824 52.5422 284.824 52.1571C284.824 51.8821 284.851 51.6896 284.906 51.5795C285.016 51.0295 285.319 50.0668 285.814 48.6916C286.364 47.3715 287.107 45.8863 288.042 44.236C288.977 42.5858 290.132 40.9906 291.507 39.4504C292.937 37.8551 294.56 36.5625 296.375 35.5723C298.246 34.5272 300.336 34.0046 302.646 34.0046C305.287 34.0046 307.102 34.8297 308.092 36.4799C309.137 38.0752 309.66 39.9179 309.66 42.0082C309.66 43.8785 309.357 45.8312 308.752 47.8665C308.202 49.9018 307.542 51.5796 306.772 52.8997C303.306 59.3356 299.098 64.0938 294.148 67.1742C289.252 70.3097 284.246 71.8774 279.13 71.8774Z" fill="#49C4CC"/>
<path d="M220.908 17.0072C220.523 17.0072 220.138 16.9247 219.753 16.7597C219.423 16.5397 219.148 16.3196 218.928 16.0996C218.378 15.4945 217.965 14.8069 217.69 14.0368C217.415 13.2117 217.278 12.4141 217.278 11.644C217.278 10.1038 217.635 8.81109 218.35 7.76594C219.946 5.67565 221.926 4.13544 224.291 3.1453C226.712 2.15516 229.737 1.66009 233.367 1.66009C233.808 1.66009 234.248 1.66009 234.688 1.66009C235.183 1.66009 235.65 1.6876 236.09 1.7426C240.216 1.96263 244.259 2.37519 248.22 2.98028C252.18 3.58536 256.388 3.8879 260.844 3.8879C263.264 3.8879 265.437 3.77789 267.362 3.55786C269.343 3.28282 270.635 2.81525 271.24 2.15516H271.405C272.065 2.15516 272.395 2.51271 272.395 3.22781C272.34 4.27296 271.735 4.96055 270.58 5.2906C269.48 5.56563 268.297 5.70315 267.032 5.70315C266.152 5.70315 265.299 5.67565 264.474 5.62064C263.649 5.56564 262.989 5.51063 262.494 5.45562C259.304 5.18058 255.618 4.79553 251.438 4.30046C247.312 3.75038 243.241 3.47534 239.226 3.47534C235.375 3.47534 231.827 3.8879 228.582 4.71302C225.391 5.53813 222.916 7.16086 221.156 9.5812C220.661 10.2963 220.303 10.9839 220.083 11.644C219.863 12.3041 219.753 12.9367 219.753 13.5417C219.753 14.3119 219.918 14.9995 220.248 15.6045C220.468 15.8246 220.716 16.0721 220.991 16.3471C221.266 16.5672 221.513 16.6772 221.733 16.6772C221.513 16.8972 221.238 17.0072 220.908 17.0072ZM183.035 62.306C182.595 62.306 182.128 62.2785 181.633 62.2235C181.138 62.2235 180.67 62.196 180.23 62.141C177.81 61.811 175.527 61.1509 173.382 60.1607C171.236 59.1706 169.504 57.7954 168.183 56.0352C166.863 54.2749 166.203 52.1021 166.203 49.5168C166.203 48.6366 166.286 47.7015 166.451 46.7114C166.836 44.9511 167.468 43.3834 168.348 42.0082C169.174 40.633 170.054 39.5604 170.989 38.7903C171.924 38.0202 172.667 37.6351 173.217 37.6351C173.437 37.6351 173.657 37.7451 173.877 37.9652C172.667 38.7353 171.704 40.193 170.989 42.3383C170.219 44.4286 169.834 46.5188 169.834 48.6091C169.834 49.7643 169.944 50.7544 170.164 51.5795C170.824 54.1099 172.309 56.2827 174.619 58.098C176.93 59.9682 179.928 60.9034 183.613 60.9034C187.739 60.9034 192.029 59.7757 196.485 57.5204C200.94 55.2651 205.396 52.3772 209.852 48.8567C213.427 46.0513 217.03 42.7783 220.661 39.0378C224.346 35.2423 228.114 31.2542 231.965 27.0736H211.337L212.245 25.9185H232.955C233.065 25.8085 233.175 25.7259 233.285 25.6709C233.395 25.5609 233.478 25.4509 233.533 25.3409C235.348 23.4156 237.383 21.2428 239.638 18.8225C241.894 16.4021 244.424 14.0918 247.229 11.8915C250.09 9.6362 253.198 7.90346 256.553 6.69329C258.533 6.0332 259.771 5.70315 260.266 5.70315C260.706 5.70315 260.926 5.81317 260.926 6.0332C260.926 6.19822 260.871 6.41826 260.761 6.69329C259.606 6.69329 258.258 7.02334 256.718 7.68343C255.233 8.28852 253.775 9.05862 252.345 9.99375C250.915 10.8739 249.677 11.754 248.632 12.6341C247.092 14.0093 245.607 15.467 244.176 17.0072C242.801 18.4924 241.454 20.0327 240.133 21.6279L236.585 25.9185H244.011C245.882 23.6632 247.779 21.4904 249.705 19.4001C251.63 17.2548 253.528 15.2745 255.398 13.4592C256.608 12.2491 257.928 11.0939 259.359 9.99375C260.789 8.8936 262.192 7.98597 263.567 7.27087C264.942 6.50076 266.152 6.11571 267.197 6.11571C266.482 6.66579 265.382 7.68343 263.897 9.16864C262.412 10.5988 261.036 12.0015 259.771 13.3767C258.066 15.192 256.113 17.3923 253.913 19.9776C251.713 22.563 249.54 25.2309 247.394 27.9813C245.249 30.7316 243.324 33.317 241.619 35.7373C239.913 38.1027 238.676 40.0279 237.906 41.5131C237.521 42.1732 237.191 42.8608 236.915 43.5759C236.64 44.291 236.503 44.9511 236.503 45.5562C236.503 46.6014 236.97 47.1239 237.906 47.1239C238.566 47.1239 239.556 46.7939 240.876 46.1338C242.251 45.3637 243.544 44.3735 244.754 43.1634C245.964 41.8982 247.229 40.4955 248.55 38.9553C248.715 38.9553 248.797 39.0378 248.797 39.2028C248.797 39.4229 248.687 39.7254 248.467 40.1105C248.302 40.4955 248.192 40.798 248.137 41.0181C245.937 43.5484 243.874 45.4462 241.949 46.7114C240.023 47.9765 238.043 48.6091 236.008 48.6091C234.743 48.6091 233.835 48.3341 233.285 47.784C232.735 47.1789 232.46 46.4363 232.46 45.5562C232.46 44.6211 232.652 43.6034 233.037 42.5033C233.478 41.4031 234.028 40.303 234.688 39.2028C235.733 37.3326 236.97 35.3798 238.401 33.3445C239.886 31.2542 241.454 29.1639 243.104 27.0736H235.595C231.8 31.5843 227.784 35.9849 223.549 40.2755C219.368 44.5111 214.582 48.4991 209.192 52.2396C204.956 55.2101 200.583 57.6304 196.072 59.5007C191.617 61.3709 187.271 62.306 183.035 62.306Z" stroke="#49C4CC" stroke-width="0.723734" mask="url(#path-2-outside-1_5700_19845)"/>
<path d="M237.539 48.6091C237.429 48.6091 237.374 48.5816 237.374 48.5266C237.374 48.5266 237.456 48.4716 237.621 48.3616C237.786 48.2516 238.034 48.1141 238.364 47.949C240.289 47.0139 242.049 45.8037 243.645 44.3185C245.185 42.7783 246.67 41.1556 248.1 39.4504C249.09 38.1852 250.328 36.59 251.813 34.6647C253.354 32.6844 254.949 30.5941 256.599 28.3938C258.304 26.1385 259.927 23.9932 261.467 21.9579C263.007 19.9226 264.328 18.1899 265.428 16.7597C266.803 15.1095 268.206 13.5693 269.636 12.1391C271.121 10.6538 272.551 9.47118 273.926 8.59106C275.302 7.65593 276.484 7.18836 277.474 7.18836C278.189 7.18836 278.74 7.40839 279.125 7.84845C279.51 8.23351 279.702 8.67357 279.702 9.16864C279.702 9.99375 279.29 10.6263 278.465 11.0664C276.539 11.0664 274.669 11.6165 272.854 12.7166C271.038 13.7618 269.306 15.137 267.656 16.8422C266.005 18.4924 264.493 20.1977 263.117 21.9579C264.218 22.178 265.345 22.343 266.5 22.453C267.711 22.508 268.838 22.5355 269.883 22.5355C270.763 22.5355 271.561 22.508 272.276 22.453C273.046 22.398 273.624 22.3155 274.009 22.2055C274.504 22.2055 274.752 22.3155 274.752 22.5355C274.807 22.7005 274.779 22.838 274.669 22.9481C274.449 23.1681 273.981 23.6632 273.266 24.4333C272.606 25.2034 271.836 26.056 270.956 26.9911C270.131 27.8712 269.361 28.7239 268.646 29.549C267.931 30.3191 267.408 30.8967 267.078 31.2817C265.373 33.317 263.667 35.5448 261.962 37.9652C260.312 40.3855 259.157 42.5583 258.497 44.4836C258.277 44.9786 258.167 45.4462 258.167 45.8863C258.167 46.6564 258.524 47.0414 259.239 47.0414C260.009 47.0414 260.89 46.6839 261.88 45.9688C262.925 45.2537 263.915 44.4286 264.85 43.4934C265.84 42.5033 266.693 41.5957 267.408 40.7705C268.178 39.8904 268.673 39.3128 268.893 39.0378C269.058 39.0378 269.141 39.1203 269.141 39.2853C269.141 39.5054 269.031 39.8079 268.811 40.193C268.646 40.523 268.536 40.798 268.481 41.0181C267.656 42.0082 266.665 43.1084 265.51 44.3185C264.355 45.4737 263.117 46.4913 261.797 47.3715C260.532 48.1966 259.267 48.6091 258.002 48.6091C256.626 48.6091 255.636 48.2791 255.031 47.619C254.481 46.9039 254.206 46.0238 254.206 44.9786C254.206 44.3735 254.289 43.741 254.454 43.0809C254.784 41.4306 255.609 39.6979 256.929 37.8826C258.249 36.0674 259.817 34.2521 261.632 32.4369C263.447 30.6216 265.29 28.9714 267.16 27.4862C269.086 26.001 270.791 24.7633 272.276 23.7732C272.001 23.8282 271.616 23.8832 271.121 23.9382C270.626 23.9382 270.076 23.9382 269.471 23.9382C268.206 23.9382 266.83 23.8832 265.345 23.7732C263.915 23.6082 262.87 23.3881 262.21 23.1131C262.045 23.2781 261.852 23.5256 261.632 23.8557C260.477 25.3959 259.129 27.1836 257.589 29.2189C256.104 31.2542 254.536 33.3445 252.886 35.4898C251.236 37.6351 249.641 39.6154 248.1 41.4306C247.33 42.3108 246.395 43.3284 245.295 44.4836C244.195 45.5837 242.985 46.5463 241.664 47.3715C240.344 48.1966 238.969 48.6091 237.539 48.6091Z" stroke="#49C4CC" stroke-width="0.723734" mask="url(#path-2-outside-1_5700_19845)"/>
<path d="M279.13 71.8774C273.3 71.8774 269.119 70.4747 266.589 67.6693C264.003 64.8639 262.876 61.2884 263.206 56.9428C263.536 52.9272 264.526 49.0217 266.176 45.2262C267.826 41.3756 269.917 37.6901 272.447 34.1696C274.977 30.5941 277.755 27.1836 280.781 23.9382C283.806 20.6927 286.804 17.6673 289.774 14.8619C289.059 14.8069 288.262 14.7794 287.382 14.7794C286.556 14.7244 285.704 14.6969 284.824 14.6969C282.953 14.6969 281.083 14.8344 279.213 15.1095C277.398 15.3845 276.022 15.9896 275.087 16.9247C274.592 16.9247 274.345 16.6772 274.345 16.1821C274.345 15.137 275.225 14.4219 276.985 14.0368C278.8 13.5968 281.056 13.3767 283.751 13.3767C284.851 13.3767 286.006 13.4042 287.217 13.4592C288.427 13.5142 289.664 13.5968 290.93 13.7068C291.755 12.9367 292.58 12.2491 293.405 11.644C294.23 11.0389 294.973 10.5438 295.633 10.1588C297.283 9.16864 298.686 8.42603 299.841 7.93097C300.996 7.4359 302.014 7.18836 302.894 7.18836C301.684 7.90346 300.281 8.83859 298.686 9.99375C297.145 11.1489 295.55 12.5241 293.9 14.1193C296.65 14.3394 299.538 14.6144 302.564 14.9444C305.589 15.2195 308.587 15.357 311.557 15.357C313.868 15.357 316.178 15.192 318.488 14.8619C320.854 14.4769 322.999 13.8993 324.924 13.1292C326.905 12.3591 328.472 11.3414 329.627 10.0763C330.783 8.81109 331.36 7.27087 331.36 5.45562C331.36 4.35547 331.113 3.39283 330.618 2.56772C330.123 1.7426 329.572 1.33005 328.967 1.33005C329.187 1.11002 329.49 1 329.875 1C331.14 1 332.13 1.57758 332.845 2.73274C333.616 3.8879 334.001 5.01556 334.001 6.11571C334.001 8.26101 333.423 10.0213 332.268 11.3964C331.168 12.7716 329.682 13.8443 327.812 14.6144C325.997 15.3845 324.017 15.9346 321.871 16.2646C319.726 16.5947 317.636 16.7597 315.601 16.7597C311.64 16.7597 307.789 16.5397 304.049 16.0996C300.363 15.6595 296.623 15.302 292.827 15.027C289.857 17.8874 286.804 21.1328 283.669 24.7633C280.533 28.3938 277.755 32.2169 275.335 36.2324C274.125 38.1577 272.915 40.4405 271.704 43.0809C270.494 45.7212 269.477 48.4441 268.651 51.2495C267.826 54.0549 267.414 56.7228 267.414 59.2531C267.414 61.3984 267.799 63.3237 268.569 65.0289C269.394 66.7892 270.714 68.1644 272.53 69.1545C274.4 70.1996 276.903 70.7222 280.038 70.7222C282.678 70.7222 285.401 70.0071 288.207 68.5769C291.067 67.2017 293.817 65.1664 296.458 62.4711C299.153 59.7757 301.519 56.5027 303.554 52.6522C303.994 51.7721 304.489 50.6169 305.039 49.1867C305.644 47.8115 306.167 46.3538 306.607 44.8136C307.047 43.2184 307.267 41.7332 307.267 40.358C307.267 38.9278 306.909 37.7176 306.194 36.7275C305.534 35.7373 304.296 35.2423 302.481 35.2423C300.336 35.2423 298.356 35.8749 296.54 37.14C294.725 38.4052 293.102 39.9729 291.672 41.8432C290.297 43.7135 289.087 45.5837 288.042 47.454C287.052 49.3242 286.309 50.892 285.814 52.1571C285.319 53.4223 285.099 54.0549 285.154 54.0549C285.099 54.0549 285.016 53.8349 284.906 53.3948C284.851 52.9547 284.824 52.5422 284.824 52.1571C284.824 51.8821 284.851 51.6896 284.906 51.5795C285.016 51.0295 285.319 50.0668 285.814 48.6916C286.364 47.3715 287.107 45.8863 288.042 44.236C288.977 42.5858 290.132 40.9906 291.507 39.4504C292.937 37.8551 294.56 36.5625 296.375 35.5723C298.246 34.5272 300.336 34.0046 302.646 34.0046C305.287 34.0046 307.102 34.8297 308.092 36.4799C309.137 38.0752 309.66 39.9179 309.66 42.0082C309.66 43.8785 309.357 45.8312 308.752 47.8665C308.202 49.9018 307.542 51.5796 306.772 52.8997C303.306 59.3356 299.098 64.0938 294.148 67.1742C289.252 70.3097 284.246 71.8774 279.13 71.8774Z" stroke="#49C4CC" stroke-width="0.723734" mask="url(#path-2-outside-1_5700_19845)"/>
</svg>
