<svg width="19" height="19" viewBox="0 0 19 19" fill="none" xmlns="http://www.w3.org/2000/svg">
<path d="M3.04358 6.27179C2.15214 5.38035 2.15214 3.93503 3.04358 3.04358C3.93503 2.15214 5.38035 2.15214 6.27179 3.04358L15.9564 12.7282C16.8479 13.6197 16.8479 15.065 15.9564 15.9564C15.065 16.8479 13.6197 16.8479 12.7282 15.9564L3.04358 6.27179Z" stroke="white" stroke-width="1.1875"/>
<path d="M4.75 7.9165L7.91667 4.74984" stroke="white" stroke-width="1.1875" stroke-linecap="round"/>
<path d="M12.7485 1.82669C12.8759 1.50243 13.3331 1.50243 13.4605 1.82669L13.8012 2.69379C13.8401 2.79279 13.9182 2.87115 14.0168 2.91019L14.8807 3.25217C15.2038 3.38006 15.2038 3.83896 14.8807 3.96684L14.0168 4.30882C13.9182 4.34787 13.8401 4.42623 13.8012 4.52523L13.4605 5.39233C13.3331 5.71658 12.8759 5.71658 12.7485 5.39233L12.4077 4.52523C12.3688 4.42623 12.2908 4.34787 12.1921 4.30882L11.3282 3.96684C11.0052 3.83896 11.0052 3.38006 11.3282 3.25217L12.1921 2.91019C12.2908 2.87115 12.3688 2.79279 12.4077 2.69379L12.7485 1.82669Z" stroke="white" stroke-width="0.791667"/>
<path d="M15.8112 7.22757C15.9386 6.90331 16.3958 6.90331 16.5232 7.22757L16.6474 7.54372C16.6863 7.64271 16.7644 7.72108 16.863 7.76012L17.178 7.88481C17.5011 8.01269 17.5011 8.47159 17.178 8.59948L16.863 8.72416C16.7644 8.76321 16.6863 8.84157 16.6474 8.94057L16.5232 9.25672C16.3958 9.58097 15.9386 9.58097 15.8112 9.25672L15.6869 8.94057C15.648 8.84157 15.57 8.76321 15.4713 8.72416L15.1564 8.59948C14.8333 8.47159 14.8333 8.01269 15.1564 7.88481L15.4713 7.76012C15.57 7.72108 15.648 7.64271 15.6869 7.54372L15.8112 7.22757Z" stroke="white" stroke-width="0.791667"/>
<path d="M4.06118 12.1182C4.18859 11.7939 4.6458 11.7939 4.77321 12.1182L4.89744 12.4343C4.93634 12.5333 5.01442 12.6117 5.11305 12.6507L5.42803 12.7754C5.75109 12.9033 5.75109 13.3622 5.42803 13.4901L5.11305 13.6148C5.01442 13.6538 4.93634 13.7322 4.89744 13.8312L4.77321 14.1473C4.6458 14.4716 4.18859 14.4716 4.06118 14.1473L3.93695 13.8312C3.89805 13.7322 3.81997 13.6538 3.72134 13.6148L3.40636 13.4901C3.0833 13.3622 3.0833 12.9033 3.40636 12.7754L3.72134 12.6507C3.81997 12.6117 3.89805 12.5333 3.93695 12.4343L4.06118 12.1182Z" stroke="white" stroke-width="0.791667"/>
</svg>
