<svg width="20" height="21" viewBox="0 0 20 21" fill="none" xmlns="http://www.w3.org/2000/svg">
<g clip-path="url(#clip0_2011_88234)">
<path fill-rule="evenodd" clip-rule="evenodd" d="M17.647 4.51672L14.5678 7.59582C15.6075 8.98805 16.1632 10.6663 16.1632 12.4185C16.1632 14.5758 15.3216 16.6075 13.7961 18.1329C12.2705 19.6582 10.239 20.5 8.08168 20.5C5.92434 20.5 3.89262 19.6583 2.36715 18.1329C0.84168 16.6074 0 14.5758 0 12.4185C0 10.2611 0.841601 8.22941 2.36711 6.70395C3.89254 5.17852 5.92438 4.3368 8.08164 4.3368C9.83383 4.3368 11.5118 4.89262 12.9042 5.93211L15.9832 2.85297H14.7617C14.1121 2.85297 13.5852 2.32602 13.5852 1.67648C13.5852 1.02695 14.1122 0.5 14.7618 0.5H18.8235C19.4731 0.5 20 1.02695 20 1.67648V5.73824C20 6.38777 19.4731 6.91473 18.8235 6.91473C18.1739 6.91473 17.647 6.38777 17.647 5.73824V4.51672ZM12.1323 16.4694C13.2152 15.3866 13.8102 13.9498 13.8102 12.4185C13.8102 10.8873 13.2151 9.45047 12.1323 8.36781C11.0496 7.28527 9.61277 6.6898 8.08168 6.6898C6.55027 6.6898 5.11348 7.28496 4.03055 8.36777C2.94785 9.45039 2.35293 10.8874 2.35293 12.4185C2.35293 13.9497 2.94777 15.3866 4.03055 16.4694C5.11336 17.5522 6.55031 18.1472 8.08164 18.1472C9.6127 18.1472 11.0496 17.552 12.1323 16.4694Z" fill="#11133A"/>
</g>
<defs>
<clipPath id="clip0_2011_88234">
<rect width="20" height="20" fill="white" transform="translate(0 0.5)"/>
</clipPath>
</defs>
</svg>
