<svg width="16" height="16" viewBox="0 0 16 16" fill="none" xmlns="http://www.w3.org/2000/svg">
<path d="M2.18587 10.1974C1.61925 9.46131 1.33594 9.09324 1.33594 8.00033C1.33594 6.90741 1.61925 6.53934 2.18587 5.80321C3.31725 4.33336 5.21468 2.66699 8.0026 2.66699C10.7905 2.66699 12.688 4.33336 13.8193 5.80321C14.386 6.53934 14.6693 6.90741 14.6693 8.00033C14.6693 9.09324 14.386 9.46131 13.8193 10.1974C12.688 11.6673 10.7905 13.3337 8.0026 13.3337C5.21468 13.3337 3.31725 11.6673 2.18587 10.1974Z" stroke="#424242"/>
<path d="M10 8C10 9.10457 9.10457 10 8 10C6.89543 10 6 9.10457 6 8C6 6.89543 6.89543 6 8 6C9.10457 6 10 6.89543 10 8Z" stroke="#424242"/>
</svg>
