<svg width="24" height="25" viewBox="0 0 24 25" fill="none" xmlns="http://www.w3.org/2000/svg">
<path d="M21.1938 3.02841C22.2687 4.10341 22.2687 5.84631 21.1938 6.92131L20.6982 7.41685C20.5539 7.38561 20.3722 7.33805 20.1651 7.2662C19.6108 7.07389 18.8823 6.71043 18.197 6.02517C17.5117 5.33991 17.1483 4.6114 16.956 4.05707C16.8841 3.84997 16.8366 3.66825 16.8053 3.52396L17.3009 3.02841C18.3759 1.95342 20.1188 1.95342 21.1938 3.02841Z" fill="white"/>
<path d="M14.5801 13.535C14.1761 13.939 13.9741 14.141 13.7513 14.3147C13.4886 14.5197 13.2043 14.6954 12.9035 14.8387C12.6485 14.9603 12.3775 15.0506 11.8354 15.2313L8.97709 16.1841C8.71035 16.273 8.41626 16.2035 8.21744 16.0047C8.01862 15.8059 7.9492 15.5118 8.03811 15.2451L8.99089 12.3867C9.17157 11.8447 9.26191 11.5737 9.38344 11.3187C9.52679 11.0179 9.70249 10.7336 9.90743 10.4709C10.0812 10.2481 10.2832 10.0461 10.6872 9.6421L15.6033 4.72602C15.867 5.42021 16.3293 6.2788 17.1363 7.08583C17.9434 7.89286 18.802 8.35513 19.4962 8.61891L14.5801 13.535Z" fill="white"/>
<path d="M20.5355 20.7577C22 19.2932 22 16.9362 22 12.2222C22 10.6739 22 9.3799 21.9481 8.28827L15.586 14.6504C15.2347 15.0018 14.9708 15.2659 14.6738 15.4975C14.3252 15.7694 13.948 16.0026 13.5488 16.1928C13.2088 16.3548 12.8546 16.4728 12.3833 16.6298L9.45143 17.6071C8.64568 17.8757 7.75734 17.6659 7.15678 17.0654C6.55621 16.4648 6.34651 15.5765 6.61509 14.7707L7.59235 11.8389C7.74936 11.3675 7.86732 11.0133 8.02935 10.6734C8.21958 10.2742 8.45272 9.89697 8.72466 9.54832C8.9563 9.25134 9.22032 8.98744 9.57173 8.6362L15.9339 2.27405C14.8423 2.22217 13.5483 2.22217 12 2.22217C7.28595 2.22217 4.92893 2.22217 3.46447 3.68663C2 5.1511 2 7.50812 2 12.2222C2 16.9362 2 19.2932 3.46447 20.7577C4.92893 22.2222 7.28595 22.2222 12 22.2222C16.714 22.2222 19.0711 22.2222 20.5355 20.7577Z" fill="white"/>
</svg>
