<svg width="45" height="46" viewBox="0 0 45 46" fill="none" xmlns="http://www.w3.org/2000/svg">
<g clip-path="url(#clip0_2016_64370)">
<path d="M22.4996 45.5002C34.9258 45.5002 44.9992 35.4268 44.9992 23.0006C44.9992 10.5744 34.9258 0.500977 22.4996 0.500977C10.0734 0.500977 0 10.5744 0 23.0006C0 35.4268 10.0734 45.5002 22.4996 45.5002Z" fill="#F8F8F8"/>
<path d="M24.0868 29.8366C22.6002 29.7216 21.9755 28.9844 20.8095 28.2766C20.1687 31.6388 19.3856 34.8617 17.066 36.5454C16.3491 31.4639 18.117 27.6471 18.938 23.5957C17.5386 21.24 19.1062 16.4985 22.0579 17.6669C25.6906 19.1034 18.9127 26.4261 23.4629 27.3407C28.2132 28.2956 30.1524 19.0982 27.2064 16.1066C22.95 11.7875 14.8169 16.0084 15.817 22.1914C16.0606 23.703 17.6227 24.1619 16.441 26.2477C13.7169 25.6444 12.9043 23.4958 13.0087 20.6315C13.1774 15.9429 17.2217 12.66 21.2782 12.2057C26.4085 11.6315 31.2237 14.0895 31.8883 18.9152C32.6361 24.3617 29.5723 30.2601 24.0868 29.8366Z" fill="#CB2027"/>
</g>
<defs>
<clipPath id="clip0_2016_64370">
<rect width="45" height="45" fill="white" transform="translate(0 0.5)"/>
</clipPath>
</defs>
</svg>
