<svg width="26" height="26" viewBox="0 0 26 26" fill="none" xmlns="http://www.w3.org/2000/svg">
<g clip-path="url(#clip0_2011_96244)">
<path d="M25.7774 12.8812C25.7773 13.4206 25.34 13.8577 24.8006 13.8577H23.3357L23.3353 15.3226C23.3351 15.862 22.8979 16.2991 22.3585 16.2991C21.8191 16.2991 21.382 15.862 21.3822 15.3226L21.3826 13.8577H19.9178C19.3784 13.8577 18.9413 13.4206 18.9415 12.8812C18.9417 12.3418 19.379 11.9046 19.9184 11.9046H21.3832L21.3836 10.4398C21.3838 9.90036 21.8211 9.46319 22.3605 9.46319C22.8999 9.46319 23.3369 9.90036 23.3368 10.4398L23.3363 11.9046H24.8012C25.3406 11.9046 25.7776 12.3418 25.7774 12.8812ZM23.3613 18.3493C22.9153 18.0461 22.3079 18.1618 22.0045 18.6078C20.0347 21.5037 16.7711 23.2327 13.2743 23.2327C7.45884 23.2327 2.72889 18.5014 2.73063 12.6859C2.73237 6.87035 7.46516 2.13898 13.2807 2.13898C16.852 2.13898 20.1529 3.9254 22.1106 6.91784C22.406 7.36912 23.0111 7.49538 23.4625 7.19994C23.9138 6.90468 24.0405 6.29929 23.7452 5.84801C21.4254 2.30263 17.5137 0.185852 13.2812 0.185852C9.94244 0.185852 6.80293 1.48609 4.44131 3.84701C2.07969 6.20792 0.778506 9.34704 0.777506 12.6859C0.776506 16.0247 2.07581 19.1638 4.43601 21.5247C6.79622 23.8856 9.93495 25.1859 13.2738 25.1859C17.4179 25.1859 21.2854 23.1374 23.6193 19.706C23.9227 19.2599 23.8071 18.6526 23.3613 18.3493ZM8.05151 17.3245C8.5909 17.3245 9.0282 16.8874 9.02836 16.348L9.03054 9.07257C9.03065 8.70502 8.82438 8.36857 8.49674 8.20206C8.16911 8.03535 7.77562 8.06702 7.47858 8.28369L5.67154 9.60205C5.23581 9.92 5.14007 10.5309 5.45789 10.9666C5.77572 11.4022 6.38661 11.4976 6.82234 11.1798L7.07684 10.994L7.07524 16.348C7.07508 16.8874 7.51211 17.3245 8.05151 17.3245ZM10.9821 14.3948C10.9823 13.6134 11.2907 12.9029 11.7914 12.3771C11.4381 11.9223 11.2271 11.3519 11.2273 10.7327C11.2278 9.25186 12.4328 8.04718 13.9137 8.04718C15.3945 8.04718 16.5988 9.25186 16.5984 10.7327C16.5982 11.3519 16.3869 11.9223 16.0333 12.3771C16.5337 12.9029 16.8417 13.6134 16.8414 14.3948C16.841 16.0104 15.5264 17.3245 13.9109 17.3245C12.2954 17.3245 10.9816 16.0104 10.9821 14.3948ZM14.8883 14.3948C14.8885 13.8564 14.4505 13.4183 13.9121 13.4183C13.3736 13.4183 12.9354 13.8564 12.9352 14.3948C12.935 14.9333 13.373 15.3714 13.9115 15.3714C14.4499 15.3714 14.8882 14.9333 14.8883 14.3948ZM13.1804 10.7327C13.1803 11.1365 13.5089 11.4651 13.9126 11.4651C14.3164 11.4651 14.6452 11.1365 14.6453 10.7327C14.6454 10.3289 14.3169 10.0003 13.9131 10.0003C13.5093 10.0003 13.1806 10.3289 13.1804 10.7327Z" fill="#009CFF"/>
</g>
<defs>
<clipPath id="clip0_2011_96244">
<rect width="25" height="25" fill="white" transform="matrix(1 0 -0.000299528 1 0.78125 0.185822)"/>
</clipPath>
</defs>
</svg>
