<svg width="24" height="24" viewBox="0 0 24 24" fill="none" xmlns="http://www.w3.org/2000/svg">
<g clip-path="url(#clip0_3812_402)">
<path d="M20.0683 4.52083C19.8739 4.45205 19.6808 4.43035 19.504 4.43457L22.805 3.17079C22.8248 3.16352 22.8428 3.15781 22.8588 3.15332C22.8651 3.23086 22.8627 3.3503 22.8313 3.51868L22.8175 3.58345L19.1973 20.547C19.1653 20.6853 19.1309 20.7791 19.103 20.8395C19.0575 20.8244 18.9965 20.7997 18.9194 20.7598L13.4644 16.765L12.6953 16.2017L12.0061 16.8604L10.3241 18.4678L10.5195 15.7203L20.3984 6.84978C20.3996 6.84875 20.4007 6.84772 20.4019 6.84667C20.5874 6.68172 20.9248 6.32413 20.9446 5.78404C20.9711 5.06429 20.4518 4.65657 20.0683 4.52083ZM1.96738 11.1486L18.0979 4.9729L6.1494 12.4494L1.96738 11.1486ZM1.03091 11.5852C1.03085 11.5852 1.03177 11.5842 1.03386 11.5821C1.03202 11.5842 1.03097 11.5853 1.03091 11.5852Z" fill="white" stroke="white" stroke-width="2.27556"/>
</g>
<defs>
<clipPath id="clip0_3812_402">
<rect width="24" height="24" fill="white"/>
</clipPath>
</defs>
</svg>
