<svg width="17" height="16" viewBox="0 0 17 16" fill="none" xmlns="http://www.w3.org/2000/svg">
<path d="M11.8359 6.00098C13.286 6.00905 14.0712 6.07335 14.5835 6.5856C15.1693 7.17139 15.1693 8.1142 15.1693 9.99982V10.6665C15.1693 12.5521 15.1693 13.4949 14.5835 14.0807C13.9977 14.6665 13.0549 14.6665 11.1693 14.6665H5.83594C3.95032 14.6665 3.00751 14.6665 2.42172 14.0807C1.83594 13.4949 1.83594 12.5521 1.83594 10.6665L1.83594 9.99982C1.83594 8.1142 1.83594 7.17139 2.42172 6.5856C2.93398 6.07335 3.71925 6.00905 5.16927 6.00098" stroke="white" stroke-width="0.998008" stroke-linecap="round"/>
<path d="M8.5 10L8.5 1.33333M8.5 1.33333L10.5 3.66667M8.5 1.33333L6.5 3.66667" stroke="white" stroke-width="0.998008" stroke-linecap="round" stroke-linejoin="round"/>
</svg>
