<svg width="45" height="46" viewBox="0 0 45 46" fill="none" xmlns="http://www.w3.org/2000/svg">
<g clip-path="url(#clip0_2016_64382)">
<path d="M22.5 0.5C10.074 0.5 0 10.574 0 23C0 35.426 10.074 45.5 22.5 45.5C34.926 45.5 45 35.426 45 23C45 10.574 34.926 0.5 22.5 0.5Z" fill="#F8F8F8"/>
<path d="M24.3076 22.4686L31.3808 14H29.7046L23.563 21.3532L18.6577 14H13L20.4178 25.1193L13 34H14.6762L21.162 26.2348L26.3423 34H32L24.3071 22.4686H24.3076ZM15.2802 15.2997H17.8547L29.7054 32.7594H27.1308L15.2802 15.2997Z" fill="black"/>
</g>
<defs>
<clipPath id="clip0_2016_64382">
<rect width="45" height="45" fill="white" transform="translate(0 0.5)"/>
</clipPath>
</defs>
</svg>
