<svg width="45" height="46" viewBox="0 0 45 46" fill="none" xmlns="http://www.w3.org/2000/svg">
<g clip-path="url(#clip0_2016_64396)">
<path d="M22.5 45.5C34.9264 45.5 45 35.4264 45 23C45 10.5736 34.9264 0.5 22.5 0.5C10.0736 0.5 0 10.5736 0 23C0 35.4264 10.0736 45.5 22.5 45.5Z" fill="#F8F8F8"/>
<path d="M29.8612 14.5361H15.1355C14.5471 14.5361 13.9643 14.6521 13.4207 14.8774C12.8771 15.1027 12.3831 15.4329 11.9672 15.8491C11.5512 16.2654 11.2213 16.7595 10.9964 17.3033C10.7714 17.8471 10.6559 18.4299 10.6563 19.0184V26.9822C10.6559 27.5707 10.7714 28.1534 10.9964 28.6972C11.2213 29.241 11.5512 29.7352 11.9672 30.1514C12.3831 30.5677 12.8771 30.8979 13.4207 31.1232C13.9643 31.3485 14.5471 31.4644 15.1355 31.4644H29.8612C30.4497 31.4644 31.0324 31.3485 31.576 31.1232C32.1197 30.8979 32.6136 30.5677 33.0296 30.1514C33.4455 29.7352 33.7754 29.241 34.0003 28.6972C34.2253 28.1534 34.3408 27.5707 34.3405 26.9822V19.0184C34.3408 18.4299 34.2253 17.8471 34.0003 17.3033C33.7754 16.7595 33.4455 16.2654 33.0296 15.8491C32.6136 15.4329 32.1197 15.1027 31.576 14.8774C31.0324 14.6521 30.4497 14.5361 29.8612 14.5361ZM19.378 26.6299V19.3707L25.6188 23.0003L19.378 26.6299Z" fill="#FF0000"/>
</g>
<defs>
<clipPath id="clip0_2016_64396">
<rect width="45" height="45" fill="white" transform="translate(0 0.5)"/>
</clipPath>
</defs>
</svg>
