<svg width="49" height="49" viewBox="0 0 49 49" fill="none" xmlns="http://www.w3.org/2000/svg">
<rect width="49" height="49" rx="24.5" fill="#36B1FF"/>
<path d="M18.0436 21.2718C17.1521 20.3803 17.1521 18.935 18.0436 18.0436C18.935 17.1521 20.3803 17.1521 21.2718 18.0436L30.9564 27.7282C31.8479 28.6197 31.8479 30.065 30.9564 30.9564C30.065 31.8479 28.6197 31.8479 27.7282 30.9564L18.0436 21.2718Z" stroke="white" stroke-width="1.1875"/>
<path d="M19.75 22.9165L22.9167 19.7498" stroke="white" stroke-width="1.1875" stroke-linecap="round"/>
<path d="M27.7485 16.8267C27.8759 16.5024 28.3331 16.5024 28.4605 16.8267L28.8012 17.6938C28.8401 17.7928 28.9182 17.8711 29.0168 17.9102L29.8807 18.2522C30.2038 18.3801 30.2038 18.839 29.8807 18.9668L29.0168 19.3088C28.9182 19.3479 28.8401 19.4262 28.8012 19.5252L28.4605 20.3923C28.3331 20.7166 27.8759 20.7166 27.7485 20.3923L27.4077 19.5252C27.3688 19.4262 27.2908 19.3479 27.1921 19.3088L26.3282 18.9668C26.0052 18.839 26.0052 18.3801 26.3282 18.2522L27.1921 17.9102C27.2908 17.8711 27.3688 17.7928 27.4077 17.6938L27.7485 16.8267Z" stroke="white" stroke-width="0.791667"/>
<path d="M30.8112 22.2276C30.9386 21.9033 31.3958 21.9033 31.5232 22.2276L31.6474 22.5437C31.6863 22.6427 31.7644 22.7211 31.863 22.7601L32.178 22.8848C32.5011 23.0127 32.5011 23.4716 32.178 23.5995L31.863 23.7242C31.7644 23.7632 31.6863 23.8416 31.6474 23.9406L31.5232 24.2567C31.3958 24.581 30.9386 24.581 30.8112 24.2567L30.6869 23.9406C30.648 23.8416 30.57 23.7632 30.4713 23.7242L30.1564 23.5995C29.8333 23.4716 29.8333 23.0127 30.1564 22.8848L30.4713 22.7601C30.57 22.7211 30.648 22.6427 30.6869 22.5437L30.8112 22.2276Z" stroke="white" stroke-width="0.791667"/>
<path d="M19.0612 27.1182C19.1886 26.7939 19.6458 26.7939 19.7732 27.1182L19.8974 27.4343C19.9363 27.5333 20.0144 27.6117 20.113 27.6507L20.428 27.7754C20.7511 27.9033 20.7511 28.3622 20.428 28.4901L20.113 28.6148C20.0144 28.6538 19.9363 28.7322 19.8974 28.8312L19.7732 29.1473C19.6458 29.4716 19.1886 29.4716 19.0612 29.1473L18.9369 28.8312C18.898 28.7322 18.82 28.6538 18.7213 28.6148L18.4064 28.4901C18.0833 28.3622 18.0833 27.9033 18.4064 27.7754L18.7213 27.6507C18.82 27.6117 18.898 27.5333 18.9369 27.4343L19.0612 27.1182Z" stroke="white" stroke-width="0.791667"/>
</svg>
