<svg width="45" height="45" viewBox="0 0 45 45" fill="none" xmlns="http://www.w3.org/2000/svg">
<circle cx="22.5" cy="22.5" r="22.5" fill="#E7F4F8"/>
<g clip-path="url(#clip0_2016_64468)">
<path d="M24.2518 20.3906H23.3594C23.3603 20.7355 23.363 21.8932 23.3646 22.2236C23.6844 22.222 24.047 22.2204 24.2518 22.2204C24.7642 22.2204 25.197 21.8014 25.197 21.3055C25.197 20.8096 24.7641 20.3906 24.2518 20.3906Z" fill="#009CFF"/>
<path d="M17.7734 23.2624H19.249L18.5146 21.3164L17.7734 23.2624Z" fill="#009CFF"/>
<path d="M32.9866 24.3555L31.5748 23.5405C31.6196 23.1748 31.6416 22.8314 31.6416 22.5C31.6416 22.1686 31.6196 21.8252 31.5748 21.4595L32.9866 20.6445C33.2892 20.4697 33.393 20.0827 33.2182 19.78L30.2161 14.5803C30.0414 14.2777 29.6544 14.174 29.3517 14.3487L27.9458 15.1604C27.3911 14.7501 26.7857 14.4028 26.1378 14.1231V12.4932C26.1378 12.1437 25.8545 11.8604 25.505 11.8604H19.5012C19.1517 11.8604 18.8683 12.1437 18.8683 12.4932V14.1231C18.2205 14.4027 17.6151 14.7501 17.0604 15.1603L15.6545 14.3487C15.3518 14.174 14.9648 14.2777 14.7901 14.5803L11.788 19.78C11.6133 20.0827 11.717 20.4697 12.0196 20.6445L13.4313 21.4595C13.3865 21.8252 13.3646 22.1686 13.3646 22.5C13.3646 22.8314 13.3865 23.1748 13.4313 23.5405L12.0196 24.3555C11.717 24.5303 11.6133 24.9173 11.788 25.22L14.7901 30.4196C14.9648 30.7223 15.3518 30.826 15.6545 30.6513L17.0604 29.8396C17.6151 30.2499 18.2205 30.5973 18.8683 30.8769V32.5068C18.8683 32.8563 19.1517 33.1396 19.5012 33.1396H25.5051C25.8545 33.1396 26.1379 32.8563 26.1379 32.5068V30.8769C26.7857 30.5972 27.3912 30.2498 27.9459 29.8396L29.3518 30.6513C29.6544 30.826 30.0414 30.7223 30.2162 30.4197L33.2182 25.22C33.393 24.9173 33.2893 24.5303 32.9866 24.3555ZM20.8972 25.8342C20.8236 25.862 20.7481 25.8752 20.6739 25.8752C20.4181 25.8752 20.1773 25.719 20.0817 25.4656L19.728 24.5283H17.2928L16.9351 25.4674C16.8107 25.794 16.4451 25.9579 16.1185 25.8336C15.7919 25.7092 15.628 25.3436 15.7524 25.017C15.7524 25.017 17.8154 19.6003 17.8174 19.5956C17.9341 19.3101 18.2089 19.1254 18.5173 19.125H18.5182C18.8263 19.125 19.1011 19.3091 19.2183 19.5942C19.2207 19.5999 21.2658 25.0188 21.2658 25.0188C21.3893 25.3458 21.2242 25.7108 20.8972 25.8342ZM24.2495 23.486C24.044 23.486 23.6766 23.4876 23.3552 23.4893V25.2422C23.3552 25.5917 23.0719 25.875 22.7224 25.875C22.3729 25.875 22.0896 25.5917 22.0896 25.2422C22.0896 25.2422 22.0896 19.7599 22.0896 19.7598C22.0891 19.5917 22.1555 19.4302 22.2742 19.311C22.3929 19.1919 22.5542 19.125 22.7224 19.125H24.2495C25.4686 19.125 26.4604 20.1032 26.4604 21.3055C26.4604 22.5078 25.4686 23.486 24.2495 23.486ZM28.5359 25.2422C28.5359 25.5917 28.2526 25.875 27.9031 25.875C27.5536 25.875 27.2703 25.5917 27.2703 25.2422V19.7578C27.2703 19.4083 27.5536 19.125 27.9031 19.125C28.2526 19.125 28.5359 19.4083 28.5359 19.7578V25.2422Z" fill="#009CFF"/>
</g>
<defs>
<clipPath id="clip0_2016_64468">
<rect width="21.6" height="21.6" fill="white" transform="translate(11.7031 11.7002)"/>
</clipPath>
</defs>
</svg>
