<svg width="10" height="11" viewBox="0 0 10 11" fill="none" xmlns="http://www.w3.org/2000/svg">
<g clip-path="url(#clip0_2016_64466)">
<path d="M9.20487 1.49145C9.43169 1.26464 9.43169 0.896913 9.20487 0.670107C8.97806 0.443299 8.61038 0.443299 8.38356 0.670107L4.6875 4.36616L0.99145 0.670106C0.764644 0.443298 0.396913 0.443298 0.170107 0.670106C-0.0567012 0.896913 -0.0567018 1.26464 0.170107 1.49145L3.86616 5.1875L0.170106 8.88356C-0.0567024 9.11038 -0.0567018 9.47806 0.170106 9.70487C0.396913 9.93169 0.764644 9.93169 0.99145 9.70487L4.6875 6.00884L8.38356 9.70487C8.61038 9.93169 8.97806 9.93169 9.20487 9.70487C9.43169 9.47806 9.43169 9.11038 9.20487 8.88356L5.50884 5.1875L9.20487 1.49145Z" fill="#515266"/>
</g>
<defs>
<clipPath id="clip0_2016_64466">
<rect width="10" height="10" fill="white" transform="translate(0 0.5)"/>
</clipPath>
</defs>
</svg>
