<svg width="45" height="45" viewBox="0 0 45 45" fill="none" xmlns="http://www.w3.org/2000/svg">
<circle cx="22.5" cy="22.5" r="22.5" fill="#49C4CC"/>
<rect x="12.1531" y="12.1502" width="12.6" height="12.6" rx="4.05" stroke="#49C4CC" stroke-width="0.9"/>
<path d="M16.2629 21.9639C14.6834 20.7469 12.8281 19.3176 12.8281 16.8397C12.8281 14.1043 15.922 12.1644 18.4531 14.7942L19.5781 15.9184C19.7429 16.0832 20.01 16.0831 20.1747 15.9183C20.3395 15.7535 20.3394 15.4864 20.1746 15.3217L19.0879 14.2353C21.4729 12.4893 24.0781 14.3296 24.0781 16.8397C24.0781 19.3176 22.2229 20.7469 20.6433 21.9639C20.4792 22.0904 20.318 22.2146 20.1622 22.3375C19.5781 22.7979 19.0156 23.2313 18.4531 23.2313C17.8906 23.2313 17.3281 22.7979 16.7441 22.3375C16.5883 22.2146 16.4271 22.0904 16.2629 21.9639Z" fill="white"/>
<path d="M18.6776 22.4154L18.2882 22.9404L18.9176 23.1168C20.5936 23.5865 21.8016 24.9133 22.2629 26.3918L22.4588 27.0198L22.9731 26.6096C23.4567 26.2238 24.0485 25.744 24.7015 25.197L25.0782 24.8814L24.7307 24.5338L20.7431 20.5461L20.3836 20.1865L20.0704 20.5871C19.5299 21.2786 19.0564 21.9048 18.6776 22.4154Z" fill="white" stroke="#49C4CC" stroke-width="0.9"/>
<path d="M20.6147 19.8994L20.8684 19.5846C21.8334 18.3877 23.4668 16.4119 25.249 14.6923C26.1399 13.8327 27.0774 13.0278 27.9954 12.4147C28.9053 11.8069 29.8367 11.3595 30.7098 11.2677L20.6147 19.8994ZM20.6147 19.8994L20.9005 20.1853M20.6147 19.8994L20.9005 20.1853M20.9005 20.1853L25.0632 24.3481L25.3587 24.6437M20.9005 20.1853L25.3587 24.6437M25.3587 24.6437L25.6753 24.3707M25.3587 24.6437L25.6753 24.3707M25.6753 24.3707C26.8496 23.3581 28.8058 21.6289 30.4915 19.7614M25.6753 24.3707L30.4915 19.7614M30.4915 19.7614C31.3341 18.828 32.1184 17.8499 32.7049 16.9012M30.4915 19.7614L32.7049 16.9012M32.7049 16.9012C33.2858 15.9616 33.7011 15.0059 33.7481 14.1256M32.7049 16.9012L33.7481 14.1256M33.7481 14.1256C33.8428 12.367 32.4503 11.0843 30.7099 11.2677L33.7481 14.1256Z" fill="white" stroke="#49C4CC" stroke-width="0.9"/>
<path d="M13.5649 25.2119L13.5649 25.2119C12.5484 26.4825 12.4707 27.6997 12.4081 28.7403C12.3455 29.782 12.2946 30.594 11.5502 31.3788C11.0319 31.9254 11.2166 32.8227 11.9097 33.1195L12.0868 32.7058L11.9097 33.1195C13.4429 33.7758 15.1611 33.8865 16.7113 33.6056C18.2567 33.3256 19.6799 32.6479 20.6023 31.6753C22.3017 29.8835 22.8825 26.7297 20.746 24.5931C18.6744 22.5213 15.2642 23.0879 13.5649 25.2119Z" fill="white" stroke="#49C4CC" stroke-width="0.9"/>
</svg>
